<svg width="16" height="16" viewBox="0 0 16 16" fill="none" xmlns="http://www.w3.org/2000/svg">
<g clip-path="url(#clip0_740_15885)">
<path d="M14.9669 7.07953L14.3456 7.70078L8.66937 2.02453L9.29062 1.40328L8.40687 0.519531L3.47625 5.45016L4.36 6.33391L5.00063 5.69328L7.3925 8.08516L0.875 14.6027L1.75875 15.4864L8.27625 8.96953L10.6769 11.3702L10.0363 12.0108L10.92 12.8945L15.8512 7.96391L14.9675 7.08016L14.9669 7.07953ZM11.7944 6.91703L9.89312 8.81828L7.59812 6.52328L9.49937 4.62203L11.7944 6.91703ZM7.78562 2.90828L8.615 3.73766L6.71375 5.63891L5.88437 4.80953L7.78562 2.90828ZM10.7769 9.70203L12.6781 7.80078L13.4619 8.58453L11.5606 10.4858L10.7769 9.70203Z" fill="#03D1AB"/>
</g>
<defs>
<clipPath id="clip0_740_15885">
<rect width="15" height="15" fill="white" transform="translate(0.859375 0.5)"/>
</clipPath>
</defs>
</svg>
