<svg width="16" height="16" viewBox="0 0 16 16" fill="none" xmlns="http://www.w3.org/2000/svg">
<g clip-path="url(#clip0_740_15865)">
<path d="M15.8575 4.25V11.8944C15.8575 12.3581 15.6869 12.8037 15.375 13.1506L13.2556 15.5H11.5725L14.4469 12.3138C14.5506 12.1981 14.6081 12.0494 14.6081 11.8944V4.25C14.6081 3.90563 14.3275 3.625 13.9831 3.625C13.6387 3.625 13.3581 3.90563 13.3581 4.25V9.25H13.355C13.355 9.6775 13.21 10.1056 12.92 10.4513L11.3088 12.1288L10.4081 11.2625L11.9912 9.61625C12.0725 9.51813 12.1112 9.38562 12.1088 9.25C12.0975 9.1175 12.0456 8.93875 11.95 8.83187C11.7206 8.57625 11.3262 8.55437 11.0712 8.78375L9.25375 10.4563C9.4825 10.7731 9.60875 11.1575 9.60875 11.5538V15.5H8.35875V11.5538C8.35875 11.3794 8.285 11.2119 8.15687 11.0944L5.64062 8.77875C5.39188 8.55562 4.99688 8.57625 4.7675 8.8325C4.5625 9.06188 4.55688 9.4125 4.75438 9.64812L6.36063 11.3175L5.46 12.1838L3.825 10.4831C3.52 10.1213 3.36875 9.68375 3.36563 9.25063H3.35875V4.25C3.35875 3.90563 3.07812 3.625 2.73375 3.625C2.38938 3.625 2.10875 3.90563 2.10875 4.25V11.8944C2.10875 12.0494 2.16625 12.1981 2.27 12.3138L5.14438 15.5H3.46125L1.34187 13.1506C1.03 12.8037 0.859375 12.3581 0.859375 11.8944V4.25C0.859375 3.21625 1.70062 2.375 2.73438 2.375C3.76813 2.375 4.60938 3.21625 4.60938 4.25V7.48187C5.23313 7.26312 5.955 7.38125 6.48187 7.85313L8.35938 9.58063L10.2312 7.85812C10.7625 7.3825 11.485 7.26312 12.1094 7.48187V4.25C12.1094 3.21625 12.9506 2.375 13.9844 2.375C15.0181 2.375 15.8594 3.21625 15.8594 4.25H15.8575ZM5.22062 2.475C5.22062 1.38563 6.06187 0.5 7.09562 0.5C7.58437 0.5 8.01875 0.66875 8.34562 0.954375C8.6725 0.66875 9.10687 0.5 9.59562 0.5C10.6294 0.5 11.4706 1.38563 11.4706 2.475C11.4706 4.13188 9.16437 5.8175 8.70187 6.13812L8.34562 6.38562L7.98938 6.13812C7.52688 5.81687 5.22062 4.13188 5.22062 2.475ZM6.47062 2.475C6.47062 3.1325 7.47312 4.16875 8.34562 4.84812C9.2175 4.1675 10.2206 3.12937 10.2206 2.475C10.2206 2.075 9.94 1.75 9.59562 1.75C9.28438 1.75 8.97062 1.94313 8.97062 2.375H7.72062C7.72062 1.94313 7.40687 1.75 7.09562 1.75C6.75125 1.75 6.47062 2.07563 6.47062 2.475Z" fill="#03D1AB"/>
</g>
<defs>
<clipPath id="clip0_740_15865">
<rect width="15" height="15" fill="white" transform="translate(0.859375 0.5)"/>
</clipPath>
</defs>
</svg>
