<svg width="16" height="16" viewBox="0 0 16 16" fill="none" xmlns="http://www.w3.org/2000/svg">
<mask id="mask0_740_15869" style="mask-type:luminance" maskUnits="userSpaceOnUse" x="0" y="0" width="16" height="16">
<path d="M0.859375 0.5H15.8594V15.5H0.859375V0.5Z" fill="white"/>
</mask>
<g mask="url(#mask0_740_15869)">
<path fill-rule="evenodd" clip-rule="evenodd" d="M0.859375 6.86706C0.859375 7.82607 1.65061 8.60352 2.62662 8.60352H6.1611C7.13711 8.60352 7.92834 7.82607 7.92834 6.86706V2.23652C7.92834 1.27751 7.13711 0.500067 6.1611 0.500067H2.62662C1.65061 0.500067 0.859375 1.27751 0.859375 2.23652V6.86706ZM2.62662 7.44588C2.30129 7.44588 2.03754 7.18672 2.03754 6.86706V2.23652C2.03754 1.91686 2.30129 1.6577 2.62662 1.6577H6.1611C6.48643 1.6577 6.75018 1.91686 6.75018 2.23652V6.86706C6.75018 7.18672 6.48643 7.44588 6.1611 7.44588H2.62662Z" fill="#03D1AB"/>
<path fill-rule="evenodd" clip-rule="evenodd" d="M8.78906 13.7635C8.78906 14.7226 9.58029 15.5 10.5563 15.5H14.0908C15.0668 15.5 15.858 14.7226 15.858 13.7635V9.133C15.858 8.174 15.0668 7.39655 14.0908 7.39655H10.5563C9.58029 7.39655 8.78906 8.174 8.78906 9.133V13.7635ZM10.5563 14.3424C10.231 14.3424 9.96722 14.0832 9.96722 13.7635V9.133C9.96722 8.81334 10.231 8.55419 10.5563 8.55419H14.0908C14.4161 8.55419 14.6799 8.81334 14.6799 9.133V13.7635C14.6799 14.0832 14.4161 14.3424 14.0908 14.3424H10.5563Z" fill="#03D1AB"/>
<path fill-rule="evenodd" clip-rule="evenodd" d="M0.859375 13.7414C0.859375 14.7126 1.65061 15.5 2.62662 15.5H6.1611C7.13711 15.5 7.92834 14.7126 7.92834 13.7414V11.3966C7.92834 10.4253 7.13711 9.63793 6.1611 9.63793H2.62662C1.65061 9.63793 0.859375 10.4253 0.859375 11.3966V13.7414ZM2.62662 14.3276C2.30129 14.3276 2.03754 14.0651 2.03754 13.7414V11.3966C2.03754 11.0728 2.30129 10.8103 2.62662 10.8103H6.1611C6.48643 10.8103 6.75018 11.0728 6.75018 11.3966V13.7414C6.75018 14.0651 6.48643 14.3276 6.1611 14.3276H2.62662Z" fill="#03D1AB"/>
<path fill-rule="evenodd" clip-rule="evenodd" d="M8.78906 4.60466C8.78906 5.57591 9.58029 6.36328 10.5563 6.36328H14.0908C15.0668 6.36328 15.858 5.57591 15.858 4.60466V2.25983C15.858 1.28859 15.0668 0.501213 14.0908 0.501213H10.5563C9.58029 0.501213 8.78906 1.28859 8.78906 2.25983V4.60466ZM10.5563 5.19087C10.231 5.19087 9.96722 4.9284 9.96722 4.60466V2.25983C9.96722 1.93609 10.231 1.67363 10.5563 1.67363H14.0908C14.4161 1.67363 14.6799 1.93609 14.6799 2.25983V4.60466C14.6799 4.9284 14.4161 5.19087 14.0908 5.19087H10.5563Z" fill="#03D1AB"/>
</g>
</svg>
