<svg width="16" height="16" viewBox="0 0 16 16" fill="none" xmlns="http://www.w3.org/2000/svg">
<g clip-path="url(#clip0_740_15900)">
<path d="M13.2519 2.63376L11.8506 1.23251C11.619 0.999576 11.3434 0.8149 11.0399 0.689166C10.7364 0.563433 10.411 0.49914 10.0825 0.500009H4.60938C4.11209 0.500009 3.63518 0.697553 3.28355 1.04918C2.93192 1.40081 2.73438 1.87773 2.73438 2.37501V15.5H13.9844V4.40126C13.9827 3.73857 13.7195 3.10334 13.2519 2.63376ZM12.3681 3.51751C12.3995 3.55161 12.429 3.58751 12.4563 3.62501H10.8594V2.02813C10.8969 2.05541 10.9328 2.08483 10.9669 2.11626L12.3681 3.51751ZM3.98438 14.25V2.37501C3.98438 2.20925 4.05022 2.05028 4.16743 1.93307C4.28464 1.81586 4.44361 1.75001 4.60938 1.75001H9.60938V4.87501H12.7344V14.25H3.98438ZM5.23438 10.5H11.4844V6.75001H5.23438V10.5ZM6.48438 8.00001H10.2344V9.25001H6.48438V8.00001ZM5.23438 11.75H11.4844V13H5.23438V11.75Z" fill="#03D1AB"/>
</g>
<defs>
<clipPath id="clip0_740_15900">
<rect width="15" height="15" fill="white" transform="translate(0.859375 0.5)"/>
</clipPath>
</defs>
</svg>
