<svg width="16" height="16" viewBox="0 0 16 16" fill="none" xmlns="http://www.w3.org/2000/svg">
<g clip-path="url(#clip0_740_15890)">
<path d="M13.9844 0.5H2.73438C1.70062 0.5 0.859375 1.34125 0.859375 2.375V15.5H15.8594V2.375C15.8594 1.34125 15.0181 0.5 13.9844 0.5ZM14.6094 14.25H2.10938V2.375C2.10938 2.03 2.39 1.75 2.73438 1.75H13.9844C14.3287 1.75 14.6094 2.03 14.6094 2.375V14.25ZM9.53375 4.48688L4.60938 9.41125V12.0625H7.26125L12.185 7.13813C12.9163 6.40688 12.9163 5.21812 12.185 4.48688C11.4763 3.77875 10.2419 3.77875 9.53375 4.48688ZM6.74375 10.8125H5.85938V9.92875L8.88188 6.90625L9.76562 7.79L6.74312 10.8125H6.74375ZM11.3013 6.25437L10.6494 6.90625L9.76562 6.0225L10.4175 5.37063C10.6531 5.13375 11.065 5.13375 11.3013 5.37063C11.545 5.61438 11.545 6.01062 11.3013 6.25437Z" fill="#03D1AB"/>
</g>
<defs>
<clipPath id="clip0_740_15890">
<rect width="15" height="15" fill="white" transform="translate(0.859375 0.5)"/>
</clipPath>
</defs>
</svg>
