<svg width="16" height="16" viewBox="0 0 16 16" fill="none" xmlns="http://www.w3.org/2000/svg">
<path fill-rule="evenodd" clip-rule="evenodd" d="M11.8194 12.522C10.6694 13.442 9.19938 14.002 7.60938 14.002C3.87937 14.002 0.859375 10.982 0.859375 7.25195C0.859375 3.52195 3.87937 0.501953 7.60938 0.501953C11.3394 0.501953 14.3594 3.52195 14.3594 7.25195C14.3594 8.84195 13.8094 10.312 12.8794 11.462L15.6394 14.222C15.9294 14.512 15.9294 14.992 15.6394 15.282C15.3494 15.572 14.8694 15.572 14.5794 15.282L11.8194 12.522ZM2.35938 7.25195C2.35938 4.35195 4.70937 2.00195 7.60938 2.00195C10.5094 2.00195 12.8594 4.35195 12.8594 7.25195C12.8594 8.66195 12.2994 9.95195 11.3894 10.892C11.3594 10.912 11.3394 10.932 11.3194 10.962C11.2994 10.982 11.2694 11.012 11.2494 11.032C10.3094 11.942 9.01937 12.502 7.60938 12.502C4.70937 12.502 2.35938 10.152 2.35938 7.25195Z" fill="#03D1AB"/>
</svg>
