<svg width="25" height="24" viewBox="0 0 25 24" fill="none" xmlns="http://www.w3.org/2000/svg">
    <g clip-path="url(#clip0_618_20420)">
        <path
            d="M12.7148 2.162C15.9188 2.162 16.2988 2.174 17.5638 2.232C18.8718 2.292 20.2188 2.59 21.1718 3.543C22.1338 4.505 22.4228 5.839 22.4828 7.151C22.5408 8.416 22.5528 8.796 22.5528 12C22.5528 15.204 22.5408 15.584 22.4828 16.849C22.4238 18.15 22.1188 19.51 21.1718 20.457C20.2098 21.419 18.8768 21.708 17.5638 21.768C16.2988 21.826 15.9188 21.838 12.7148 21.838C9.51084 21.838 9.13084 21.826 7.86584 21.768C6.57484 21.709 5.19684 21.397 4.25784 20.457C3.30084 19.5 3.00684 18.153 2.94684 16.849C2.88884 15.584 2.87684 15.204 2.87684 12C2.87684 8.796 2.88884 8.416 2.94684 7.151C3.00584 5.855 3.31384 4.487 4.25784 3.543C5.21784 2.583 6.55684 2.292 7.86584 2.232C9.13084 2.174 9.51084 2.162 12.7148 2.162ZM12.7148 0C9.45584 0 9.04684 0.014 7.76684 0.072C5.91184 0.157 4.06984 0.673 2.72884 2.014C1.38284 3.36 0.871844 5.198 0.786844 7.052C0.728844 8.332 0.714844 8.741 0.714844 12C0.714844 15.259 0.728844 15.668 0.786844 16.948C0.871844 18.801 1.38984 20.648 2.72884 21.986C4.07384 23.331 5.91484 23.843 7.76684 23.928C9.04684 23.986 9.45584 24 12.7148 24C15.9738 24 16.3828 23.986 17.6628 23.928C19.5168 23.843 21.3608 23.326 22.7008 21.986C24.0478 20.639 24.5578 18.802 24.6428 16.948C24.7008 15.668 24.7148 15.259 24.7148 12C24.7148 8.741 24.7008 8.332 24.6428 7.052C24.5578 5.197 24.0408 3.354 22.7008 2.014C21.3578 0.671 19.5118 0.156 17.6628 0.072C16.3828 0.014 15.9738 0 12.7148 0Z"
            fill="#03D1AB" />
        <path
            d="M12.7167 5.83789C9.31369 5.83789 6.55469 8.59689 6.55469 11.9999C6.55469 15.4029 9.31369 18.1619 12.7167 18.1619C16.1197 18.1619 18.8787 15.4029 18.8787 11.9999C18.8787 8.59689 16.1197 5.83789 12.7167 5.83789ZM12.7167 15.9999C10.5077 15.9999 8.71669 14.2089 8.71669 11.9999C8.71669 9.79089 10.5077 7.99989 12.7167 7.99989C14.9257 7.99989 16.7167 9.79089 16.7167 11.9999C16.7167 14.2089 14.9257 15.9999 12.7167 15.9999Z"
            fill="#03D1AB" />
        <path
            d="M19.1197 7.03405C19.915 7.03405 20.5597 6.38934 20.5597 5.59405C20.5597 4.79876 19.915 4.15405 19.1197 4.15405C18.3244 4.15405 17.6797 4.79876 17.6797 5.59405C17.6797 6.38934 18.3244 7.03405 19.1197 7.03405Z"
            fill="#03D1AB" />
    </g>
    <defs>
        <clipPath id="clip0_618_20420">
            <rect width="24" height="24" fill="white" transform="translate(0.714844)" />
        </clipPath>
    </defs>
</svg>