<svg width="25" height="24" viewBox="0 0 25 24" fill="none" xmlns="http://www.w3.org/2000/svg">
    <path
        d="M24.7081 24.0002L24.7141 23.9992V15.1972C24.7141 10.8912 23.7871 7.57422 18.7531 7.57422C16.3331 7.57422 14.7091 8.90222 14.0461 10.1612H13.9761V7.97622H9.20312V23.9992H14.1731V16.0652C14.1731 13.9762 14.5691 11.9562 17.1561 11.9562C19.7051 11.9562 19.7431 14.3402 19.7431 16.1992V24.0002H24.7081Z"
        fill="#03D1AB" />
    <path d="M1.10938 7.97656H6.08538V23.9996H1.10938V7.97656Z" fill="#03D1AB" />
    <path
        d="M3.59684 0C2.00584 0 0.714844 1.291 0.714844 2.882C0.714844 4.473 2.00584 5.791 3.59684 5.791C5.18784 5.791 6.47884 4.473 6.47884 2.882C6.47784 1.291 5.18684 0 3.59684 0Z"
        fill="#03D1AB" />
</svg>