<svg width="25" height="24" viewBox="0 0 25 24" fill="none" xmlns="http://www.w3.org/2000/svg">
    <path
        d="M3.90115 20.302C4.17415 21.5819 4.46715 22.1121 6.04115 21.8369C6.49915 21.7558 7.07115 21.6545 7.77515 21.7782C8.94315 21.9851 12.0312 26.1813 16.4222 22.4801C17.2792 21.8401 17.7472 21.4859 19.4102 21.8337C20.1362 21.9841 21.0672 21.8251 21.5222 20.302C25.8612 19.4689 24.9292 16.9164 23.6292 16.6935C21.3692 16.2999 19.8702 13.8115 19.7102 13.0179C19.8692 12.9133 20.2172 12.7843 20.4392 12.7032C24.1042 11.3507 22.0642 8.05905 19.5722 9.07449C19.7352 6.30122 19.7822 4.07941 17.6552 1.94932C15.3942 -0.307694 11.9012 -0.411159 9.62015 0.656551C5.64415 2.51038 5.67515 6.10176 5.85215 9.11716C4.26715 8.47077 3.19215 9.40195 3.01915 10.3566C2.75715 11.8616 4.10515 12.3672 4.90915 12.6691C5.19015 12.7747 5.65915 12.9507 5.73015 13.0072C5.64315 13.1149 5.13915 15.5053 2.15415 16.5613C1.58415 16.7629 1.04515 16.9538 0.811152 17.5106C0.672152 17.8434 0.683152 18.2167 0.847152 18.6188C1.25015 19.6172 2.56015 20.046 3.90115 20.302ZM7.01615 13.884C7.67615 12.4653 6.81015 11.692 5.40815 11.1651C5.11215 11.0542 4.56215 10.8473 4.49015 10.6574C4.51515 10.5902 4.71215 10.4558 4.89915 10.4558C4.95715 10.4601 5.12315 10.5283 5.23315 10.5721C9.97515 12.4877 4.38015 4.83992 10.2212 2.11785C12.0102 1.2816 14.8642 1.34773 16.6302 3.11303C19.4612 5.94603 17.2342 10.0825 18.4622 10.6787C19.3362 11.1022 20.1722 10.4505 20.4742 10.4409C20.7092 10.4409 20.9142 10.5902 20.9362 10.6435C20.9402 10.8323 20.3212 11.0606 19.9512 11.1971C18.2412 11.8275 17.7072 12.5827 18.6742 14.4632C19.4032 15.8818 20.9452 17.6471 22.9872 18.1826C21.5542 19.0657 20.4662 18.2881 20.1482 19.6236C19.9842 20.3329 19.8792 20.3084 19.6982 20.271C14.6322 19.2129 14.9782 24.8256 9.82915 21.1574C8.07215 19.9062 7.72915 20.0396 5.44415 20.3212C5.34815 19.919 5.28615 19.4839 5.15315 19.2215C4.79215 18.5089 3.45615 18.8695 2.40915 18.1538C4.51015 17.3868 5.93115 16.4845 7.01615 13.884Z"
        fill="#03D1AB" />
</svg>