<svg width="57" height="56" viewBox="0 0 57 56" fill="none" xmlns="http://www.w3.org/2000/svg">
<ellipse cx="28.7187" cy="28" rx="28" ry="28" fill="#03D1AB" fill-opacity="0.4"/>
<g clip-path="url(#clip0_719_97389)">
<path d="M28.7509 35C29.145 35.0007 29.5354 34.9234 29.8996 34.7728C30.2637 34.6221 30.5945 34.4009 30.8729 34.122L34.7919 30.2L33.3779 28.79L29.7449 32.424L29.7189 16H27.7189L27.7449 32.408L24.1249 28.788L22.7109 30.2L26.6299 34.119C26.908 34.3983 27.2386 34.6199 27.6025 34.7711C27.9665 34.9223 28.3568 35.0001 28.7509 35Z" fill="#005364"/>
<path d="M38.7188 32V37C38.7188 37.2652 38.6134 37.5196 38.4259 37.7071C38.2383 37.8946 37.984 38 37.7188 38H19.7188C19.4535 38 19.1992 37.8946 19.0116 37.7071C18.8241 37.5196 18.7188 37.2652 18.7188 37V32H16.7188V37C16.7188 37.7956 17.0348 38.5587 17.5974 39.1213C18.16 39.6839 18.9231 40 19.7188 40H37.7188C38.5144 40 39.2775 39.6839 39.8401 39.1213C40.4027 38.5587 40.7188 37.7956 40.7188 37V32H38.7188Z" fill="#005364"/>
</g>
<defs>
<clipPath id="clip0_719_97389">
<rect width="24" height="24" fill="white" transform="translate(16.7188 16)"/>
</clipPath>
</defs>
</svg>
