<svg width="60" height="59" viewBox="0 0 80 79" fill="none" xmlns="http://www.w3.org/2000/svg">
<rect x="0.71875" width="59" height="59" rx="6" fill="#E5FEF9"/>
<rect x="1.21875" y="0.5" width="78" height="78" rx="5.5" stroke="#03D1AB" stroke-opacity="0.5"/>
<path d="M44.6241 22.8203H30.8576C28.4438 22.8203 26.4688 24.7953 26.4688 27.2092V57.9314H55.728V33.9242L44.6241 22.8203ZM45.4873 27.809L50.7393 33.0611H45.4873V27.809ZM52.8021 55.0055H29.3947V27.2092C29.3947 26.4046 30.053 25.7462 30.8576 25.7462H42.5613V35.987H52.8021V55.0055ZM33.7397 41.8388H30.8576V50.719H32.6863V47.6468H33.7397C35.3636 47.6468 36.6802 46.3448 36.6802 44.7355C36.6802 43.1262 35.3636 41.8388 33.7397 41.8388ZM33.7397 45.8181H32.701V43.6675H33.7397C34.3395 43.6675 34.8515 44.1649 34.8515 44.7355C34.8515 45.3061 34.3395 45.8035 33.7397 45.8035V45.8181ZM41.0984 41.9412C40.7034 41.9412 40.3376 41.9412 40.0012 41.9412H38.1725V50.719H40.0012C40.3376 50.719 40.7034 50.719 41.0984 50.719C42.7223 50.719 44.0243 49.417 44.0243 47.8223V44.8525C44.0243 43.2579 42.7223 41.9559 41.0984 41.9559V41.9412ZM42.1956 44.8672V47.7931C42.1956 48.4514 41.6689 48.8903 41.0984 48.8903C40.8936 48.8903 40.4693 48.8903 40.0012 48.8903V43.7699C40.4693 43.7699 40.8936 43.7699 41.0984 43.7699C41.6689 43.7699 42.1956 44.2088 42.1956 44.8672ZM47.316 50.719H45.4873V41.8388H51.3391V43.6675H47.316V45.8181H49.8762V47.6468H47.316V50.719Z" fill="#03D1AB"/>
</svg>
