<svg width="32" height="31" viewBox="0 0 32 31" fill="none" xmlns="http://www.w3.org/2000/svg">
<path d="M18.9427 16.7917H21.526V19.375H18.9427V16.7917ZM24.1094 19.375H26.6927V16.7917H24.1094V19.375ZM18.9427 24.5417H21.526V21.9583H18.9427V24.5417ZM24.1094 24.5417H26.6927V21.9583H24.1094V24.5417ZM18.9427 9.04167H21.526V6.45833H18.9427V9.04167ZM24.1094 9.04167H26.6927V6.45833H24.1094V9.04167ZM18.9427 14.2083H21.526V11.625H18.9427V14.2083ZM24.1094 14.2083H26.6927V11.625H24.1094V14.2083ZM31.8594 3.875V31H0.859375V11.4041C0.859375 10.3695 1.26238 9.39558 1.99475 8.66321L5.49129 5.16667C7.15625 3.50042 10.0625 3.50042 11.7275 5.16667L13.776 7.21525V3.875C13.776 1.73858 15.5146 0 17.651 0H27.9844C30.1208 0 31.8594 1.73858 31.8594 3.875ZM13.776 11.4041C13.776 11.0592 13.6417 10.7338 13.3976 10.4896L9.90104 6.99308C9.22162 6.31367 7.99712 6.31367 7.31771 6.99308L3.82117 10.4896C3.57704 10.7338 3.44271 11.058 3.44271 11.4041V28.4167H13.776V11.4041ZM29.276 3.875C29.276 3.16329 28.6961 2.58333 27.9844 2.58333H17.651C16.9393 2.58333 16.3594 3.16329 16.3594 3.875V28.4167H29.276V3.875ZM7.31771 19.375H9.90104V16.7917H7.31771V19.375ZM7.31771 14.2083H9.90104V11.625H7.31771V14.2083ZM7.31771 24.5417H9.90104V21.9583H7.31771V24.5417Z" fill="#03D1AB"/>
</svg>
