<svg width="17" height="16" viewBox="0 0 17 16" fill="none" xmlns="http://www.w3.org/2000/svg">
<g clip-path="url(#clip0_916_23334)">
<path d="M8.85938 0C7.27713 0 5.73041 0.469192 4.41482 1.34824C3.09922 2.22729 2.07384 3.47672 1.46834 4.93853C0.862841 6.40034 0.704415 8.00888 1.0131 9.56072C1.32178 11.1126 2.0837 12.538 3.20252 13.6569C4.32134 14.7757 5.74681 15.5376 7.29866 15.8463C8.85051 16.155 10.459 15.9965 11.9208 15.391C13.3827 14.7855 14.6321 13.7602 15.5111 12.4446C16.3902 11.129 16.8594 9.58225 16.8594 8C16.8571 5.87897 16.0135 3.84547 14.5137 2.34568C13.0139 0.845886 10.9804 0.00229405 8.85938 0ZM8.85938 14.6667C7.54084 14.6667 6.25191 14.2757 5.15558 13.5431C4.05925 12.8106 3.20477 11.7694 2.70018 10.5512C2.1956 9.33305 2.06358 7.99261 2.32081 6.6994C2.57805 5.40619 3.21298 4.21831 4.14533 3.28596C5.07768 2.35361 6.26557 1.71867 7.55878 1.46143C8.85198 1.2042 10.1924 1.33622 11.4106 1.8408C12.6288 2.34539 13.67 3.19987 14.4025 4.2962C15.1351 5.39253 15.526 6.68146 15.526 8C15.5241 9.76752 14.8211 11.4621 13.5713 12.7119C12.3215 13.9617 10.6269 14.6647 8.85938 14.6667ZM10.1927 8C10.1938 8.2343 10.1331 8.46475 10.0167 8.66812C9.90037 8.8715 9.73249 9.04062 9.52997 9.15846C9.32746 9.2763 9.09747 9.33869 8.86317 9.33936C8.62886 9.34002 8.39852 9.27893 8.19534 9.16224C7.99217 9.04554 7.82333 8.87737 7.70583 8.67466C7.58833 8.47195 7.52633 8.24185 7.52606 8.00755C7.52579 7.77324 7.58727 7.54301 7.70431 7.34003C7.82134 7.13704 7.9898 6.96849 8.19271 6.85134V4H9.52605V6.85134C9.72813 6.96754 9.8961 7.13483 10.0131 7.33645C10.1301 7.53806 10.1921 7.76689 10.1927 8Z" fill="#C02534"/>
</g>
<defs>
<clipPath id="clip0_916_23334">
<rect width="16" height="16" fill="white" transform="translate(0.859375)"/>
</clipPath>
</defs>
</svg>
