<svg width="22" height="21" viewBox="0 0 22 21" fill="none" xmlns="http://www.w3.org/2000/svg">
<g clip-path="url(#clip0_719_92366)">
<path d="M11.3594 0C9.28268 0 7.25261 0.615814 5.52589 1.76957C3.79918 2.92332 2.45336 4.5632 1.65864 6.48182C0.863925 8.40045 0.655989 10.5116 1.06113 12.5484C1.46628 14.5853 2.46631 16.4562 3.93476 17.9246C5.40321 19.3931 7.27413 20.3931 9.31093 20.7982C11.3477 21.2034 13.4589 20.9955 15.3776 20.2007C17.2962 19.406 18.9361 18.0602 20.0898 16.3335C21.2436 14.6068 21.8594 12.5767 21.8594 10.5C21.8564 7.71615 20.7492 5.04718 18.7807 3.0787C16.8122 1.11022 14.1432 0.00301095 11.3594 0ZM11.3594 19.25C9.62879 19.25 7.93707 18.7368 6.49814 17.7754C5.05921 16.8139 3.9377 15.4473 3.27543 13.8485C2.61317 12.2496 2.43989 10.4903 2.77751 8.79296C3.11513 7.09563 3.94849 5.53653 5.1722 4.31282C6.3959 3.08911 7.95501 2.25575 9.65234 1.91813C11.3497 1.58051 13.109 1.75379 14.7079 2.41605C16.3067 3.07832 17.6733 4.19983 18.6347 5.63876C19.5962 7.07769 20.1094 8.76941 20.1094 10.5C20.1068 12.8199 19.1841 15.044 17.5438 16.6844C15.9034 18.3248 13.6792 19.2475 11.3594 19.25ZM13.1094 10.5C13.1108 10.8075 13.0311 11.11 12.8784 11.3769C12.7257 11.6438 12.5053 11.8658 12.2395 12.0205C11.9737 12.1751 11.6719 12.257 11.3643 12.2579C11.0568 12.2588 10.7545 12.1786 10.4878 12.0254C10.2212 11.8723 9.99956 11.6516 9.84534 11.3855C9.69113 11.1194 9.60975 10.8174 9.6094 10.5099C9.60905 10.2024 9.68974 9.90019 9.84335 9.63378C9.99696 9.36737 10.2181 9.14614 10.4844 8.99238V5.25H12.2344V8.99238C12.4996 9.14489 12.7201 9.36447 12.8736 9.62909C13.0272 9.8937 13.1085 10.194 13.1094 10.5Z" fill="#333333"/>
</g>
<defs>
<clipPath id="clip0_719_92366">
<rect width="21" height="21" fill="white" transform="translate(0.859375)"/>
</clipPath>
</defs>
</svg>
