<svg width="31" height="30" viewBox="0 0 31 30" fill="none" xmlns="http://www.w3.org/2000/svg">
<g clip-path="url(#clip0_719_93914)">
<path d="M27.1063 15.53V13.75C27.1063 10.7663 25.9211 7.90483 23.8113 5.79505C21.7015 3.68526 18.84 2.5 15.8563 2.5C12.8726 2.5 10.0112 3.68526 7.90137 5.79505C5.79159 7.90483 4.60632 10.7663 4.60632 13.75V15.53C3.29527 16.1073 2.22232 17.1174 1.5671 18.3913C0.911876 19.6652 0.714149 21.1255 1.00702 22.5278C1.29989 23.9301 2.06558 25.1892 3.17591 26.0943C4.28624 26.9995 5.67381 27.4957 7.10632 27.5H9.60632V15H7.10632V13.75C7.10632 11.4294 8.02819 9.20376 9.66914 7.56281C11.3101 5.92187 13.5357 5 15.8563 5C18.177 5 20.4026 5.92187 22.0435 7.56281C23.6845 9.20376 24.6063 11.4294 24.6063 13.75V15H22.1063V25H17.1063V27.5H24.6063C26.0388 27.4957 27.4264 26.9995 28.5367 26.0943C29.6471 25.1892 30.4128 23.9301 30.7056 22.5278C30.9985 21.1255 30.8008 19.6652 30.1455 18.3913C29.4903 17.1174 28.4174 16.1073 27.1063 15.53ZM7.10632 25C6.11176 25 5.15793 24.6049 4.45467 23.9016C3.75141 23.1984 3.35632 22.2446 3.35632 21.25C3.35632 20.2554 3.75141 19.3016 4.45467 18.5983C5.15793 17.8951 6.11176 17.5 7.10632 17.5V25ZM24.6063 25V17.5C25.6009 17.5 26.5547 17.8951 27.258 18.5983C27.9612 19.3016 28.3563 20.2554 28.3563 21.25C28.3563 22.2446 27.9612 23.1984 27.258 23.9016C26.5547 24.6049 25.6009 25 24.6063 25Z" fill="black"/>
</g>
<defs>
<clipPath id="clip0_719_93914">
<rect width="30" height="30" fill="white" transform="translate(0.859375)"/>
</clipPath>
</defs>
</svg>
