<svg width="28" height="27" viewBox="0 0 28 27" fill="none" xmlns="http://www.w3.org/2000/svg">
<g clip-path="url(#clip0_719_92627)">
<path fill-rule="evenodd" clip-rule="evenodd" d="M26.8709 0.988515C27.5038 1.62145 27.8594 2.47989 27.8594 3.375V10.125H26.7344V27H1.98438V10.125H0.859375V3.375C0.859375 2.47989 1.21495 1.62145 1.84789 0.988515C2.48082 0.355579 3.33927 0 4.23438 0H24.4844C25.3795 0 26.2379 0.355579 26.8709 0.988515ZM3.43888 2.5795C3.2279 2.79048 3.10938 3.07663 3.10938 3.375V7.875H25.6094V3.375C25.6094 3.07663 25.4908 2.79048 25.2799 2.5795C25.0689 2.36853 24.7827 2.25 24.4844 2.25H4.23438C3.93601 2.25 3.64986 2.36853 3.43888 2.5795ZM4.23438 24.75H24.4844V10.125H4.23438V24.75ZM9.85938 13.5H18.8594V15.75H9.85938V13.5Z" fill="#03D1AB"/>
</g>
<defs>
<clipPath id="clip0_719_92627">
<rect width="27" height="27" fill="white" transform="translate(0.859375)"/>
</clipPath>
</defs>
</svg>
