<svg width="29" height="28" viewBox="0 0 29 28" fill="none" xmlns="http://www.w3.org/2000/svg">
<g clip-path="url(#clip0_719_93737)">
<path d="M9.02865 14H20.6953V16.3333H9.02865V14ZM9.02865 21H17.1953V18.6667H9.02865V21ZM26.5286 8.85033V28H3.19531V3.5C3.19531 2.57174 3.56406 1.6815 4.22044 1.02513C4.87682 0.368749 5.76706 0 6.69531 0L17.6783 0L26.5286 8.85033ZM18.362 8.16667H22.5456L18.362 3.983V8.16667ZM24.1953 25.6667V10.5H16.0286V2.33333H6.69531C6.38589 2.33333 6.08915 2.45625 5.87035 2.67504C5.65156 2.89383 5.52865 3.19058 5.52865 3.5V25.6667H24.1953Z" fill="#BCBCBC"/>
</g>
<defs>
<clipPath id="clip0_719_93737">
<rect width="28" height="28" fill="white" transform="translate(0.859375)"/>
</clipPath>
</defs>
</svg>
