<svg width="18" height="17" viewBox="0 0 18 17" fill="none" xmlns="http://www.w3.org/2000/svg">
<g clip-path="url(#clip0_719_92615)">
<path d="M16.1901 2.83333H12.6484V1.41667C12.6484 1.04094 12.4992 0.680609 12.2335 0.414932C11.9678 0.149256 11.6075 0 11.2318 0L6.98177 0C6.60605 0 6.24571 0.149256 5.98004 0.414932C5.71436 0.680609 5.5651 1.04094 5.5651 1.41667V2.83333H2.02344V4.25H3.4401V14.875C3.4401 15.4386 3.66399 15.9791 4.0625 16.3776C4.46102 16.7761 5.00152 17 5.5651 17H12.6484C13.212 17 13.7525 16.7761 14.151 16.3776C14.5496 15.9791 14.7734 15.4386 14.7734 14.875V4.25H16.1901V2.83333ZM6.98177 1.41667H11.2318V2.83333H6.98177V1.41667ZM13.3568 14.875C13.3568 15.0629 13.2821 15.243 13.1493 15.3759C13.0165 15.5087 12.8363 15.5833 12.6484 15.5833H5.5651C5.37724 15.5833 5.19708 15.5087 5.06424 15.3759C4.9314 15.243 4.85677 15.0629 4.85677 14.875V4.25H13.3568V14.875Z" fill="#C02534"/>
<path d="M8.40104 7.08398H6.98438V12.7507H8.40104V7.08398Z" fill="#C02534"/>
<path d="M11.2292 7.08398H9.8125V12.7507H11.2292V7.08398Z" fill="#C02534"/>
</g>
<defs>
<clipPath id="clip0_719_92615">
<rect width="17" height="17" fill="white" transform="translate(0.609375)"/>
</clipPath>
</defs>
</svg>
