<svg width="121" height="40" viewBox="0 0 121 40" fill="none" xmlns="http://www.w3.org/2000/svg">
    <g clip-path="url(#clip0_719_93487)">
        <path
            d="M10.3944 0C10.0274 0 9.66537 0 9.29937 0C8.99337 0 8.68937 0.008 8.38037 0.013C7.71018 0.0211965 7.04159 0.0803672 6.38037 0.19C5.7191 0.302207 5.07855 0.513588 4.48038 0.817C3.88153 1.12418 3.33455 1.52336 2.85938 2C2.38138 2.47242 1.98261 3.01875 1.67838 3.618C1.37473 4.2159 1.16397 4.85659 1.05338 5.518C0.942206 6.17905 0.88236 6.84771 0.874375 7.518C0.865375 7.83 0.859375 8.138 0.859375 8.444V31.559C0.859375 31.869 0.865375 32.17 0.874375 32.481C0.882356 33.1513 0.942202 33.82 1.05338 34.481C1.16379 35.1425 1.37455 35.7832 1.67838 36.381C1.98177 36.9811 2.38063 37.5279 2.85938 38C3.33145 38.4773 3.87705 38.8757 4.47537 39.18C5.07353 39.4843 5.71401 39.697 6.37537 39.811C7.0367 39.9197 7.70523 39.9789 8.37537 39.988C8.68437 39.995 8.98838 39.999 9.29438 39.999C9.66038 39.999 10.0224 39.999 10.3894 39.999H110.989C111.348 39.999 111.714 39.999 112.073 39.999C112.373 39.999 112.69 39.999 112.995 39.988C113.666 39.9796 114.334 39.9204 114.995 39.811C115.659 39.6963 116.302 39.4837 116.903 39.18C117.504 38.8761 118.051 38.4777 118.525 38C119.002 37.5273 119.4 36.9826 119.707 36.386C120.009 35.7878 120.218 35.1471 120.326 34.486C120.438 33.8249 120.5 33.1564 120.512 32.486C120.512 32.175 120.512 31.875 120.512 31.564C120.52 31.201 120.52 30.839 120.52 30.47V9.536C120.52 9.17 120.52 8.807 120.512 8.444C120.512 8.137 120.512 7.83 120.512 7.523C120.5 6.85264 120.438 6.18413 120.326 5.523C120.217 4.86199 120.009 4.22135 119.707 3.623C119.09 2.41981 118.111 1.44055 116.907 0.823C116.306 0.520273 115.663 0.308946 114.999 0.196C114.338 0.0857026 113.67 0.0265273 112.999 0.019C112.699 0.019 112.382 0.008 112.077 0.006C111.718 0.006 111.352 0.006 110.993 0.006"
            fill="black" />
        <path
            d="M112.073 0.875L112.986 0.888C113.609 0.895555 114.23 0.950043 114.844 1.051C115.425 1.14972 115.989 1.33441 116.515 1.599C117.553 2.13388 118.398 2.98008 118.93 4.019C119.191 4.53855 119.371 5.0945 119.465 5.668C119.569 6.29193 119.627 6.9226 119.639 7.555C119.639 7.838 119.639 8.142 119.639 8.445C119.647 8.82 119.647 9.177 119.647 9.537V30.465C119.647 30.828 119.647 31.183 119.639 31.54C119.639 31.865 119.639 32.163 119.639 32.47C119.628 33.091 119.57 33.7103 119.468 34.323C119.375 34.9041 119.193 35.4673 118.928 35.993C118.665 36.5056 118.322 36.9733 117.912 37.379C117.504 37.7927 117.031 38.1377 116.512 38.401C115.987 38.6671 115.425 38.8525 114.844 38.951C114.226 39.0519 113.602 39.1064 112.975 39.114C112.682 39.121 112.375 39.125 112.075 39.125H110.991H9.30138C9.00138 39.125 8.70138 39.125 8.40137 39.114C7.77521 39.1059 7.1505 39.0514 6.53237 38.951C5.95537 38.8509 5.39654 38.6652 4.87437 38.4C4.35613 38.1384 3.88341 37.795 3.47438 37.383C3.06259 36.9769 2.71976 36.5064 2.45938 35.99C2.19479 35.4687 2.01166 34.9098 1.91638 34.333C1.81333 33.7131 1.7575 33.0863 1.74937 32.458C1.74337 32.247 1.73438 31.545 1.73438 31.545V8.444C1.73438 8.444 1.74337 7.753 1.74937 7.549C1.75716 6.92169 1.81265 6.29589 1.91537 5.677C2.01109 5.09887 2.19453 4.53874 2.45938 4.016C2.71992 3.4976 3.06269 3.02482 3.47438 2.616C3.88493 2.20652 4.35696 1.86371 4.87337 1.6C5.39402 1.33689 5.95124 1.15351 6.52637 1.056C7.14661 0.952887 7.7737 0.896395 8.40238 0.887L9.30237 0.875"
            fill="black" />
        <path
            d="M108.117 20.3006C108.127 19.4659 108.349 18.6475 108.761 17.9216C109.173 17.1956 109.762 16.5857 110.474 16.1486C110.022 15.5034 109.426 14.9725 108.733 14.5978C108.04 14.2232 107.27 14.0153 106.483 13.9906C104.804 13.8146 103.176 14.9906 102.32 14.9906C101.448 14.9906 100.13 14.0036 98.7116 14.0326C97.7939 14.0622 96.8995 14.3291 96.1156 14.8072C95.3317 15.2853 94.6851 15.9583 94.2386 16.7606C92.3046 20.1086 93.7476 25.0296 95.5996 27.7366C96.5266 29.0616 97.6096 30.5426 99.0276 30.4896C100.415 30.4316 100.933 29.6056 102.607 29.6056C104.266 29.6056 104.752 30.4896 106.198 30.4566C107.686 30.4326 108.624 29.1256 109.519 27.7876C110.185 26.8431 110.697 25.7992 111.037 24.6946C110.172 24.3288 109.434 23.7165 108.915 22.934C108.396 22.1516 108.118 21.2336 108.118 20.2946L108.117 20.3006Z"
            fill="white" />
        <path
            d="M105.387 12.2117C106.199 11.2375 106.599 9.98513 106.502 8.7207C105.262 8.85088 104.117 9.4436 103.294 10.3807C102.892 10.8383 102.584 11.3706 102.388 11.9474C102.192 12.5241 102.111 13.1338 102.15 13.7417C102.771 13.7481 103.384 13.6137 103.945 13.3487C104.505 13.0837 104.999 12.6949 105.387 12.2117Z"
            fill="white" />
        <path
            d="M18.0595 27.14H13.3245L12.1875 30.5H10.1875L14.6705 18.082H16.7535L21.2325 30.5H19.1935L18.0595 27.14ZM13.8165 25.591H17.5685L15.7185 20.144H15.6665L13.8165 25.591Z"
            fill="white" />
        <path
            d="M30.9118 25.9694C30.9118 28.7824 29.4058 30.5904 27.1338 30.5904C26.5581 30.6206 25.9855 30.488 25.4816 30.2079C24.9778 29.9278 24.563 29.5114 24.2848 29.0064H24.2418V33.4904H22.3828V21.4414H24.1828V22.9474H24.2168C24.5079 22.445 24.9297 22.031 25.4373 21.7492C25.945 21.4675 26.5195 21.3286 27.0998 21.3474C29.3968 21.3474 30.9118 23.1634 30.9118 25.9694ZM29.0018 25.9694C29.0018 24.1364 28.0548 22.9314 26.6088 22.9314C25.1888 22.9314 24.2338 24.1614 24.2338 25.9694C24.2338 27.7934 25.1888 29.0154 26.6088 29.0154C28.0538 29.0154 29.0018 27.8154 29.0018 25.9694Z"
            fill="white" />
        <path
            d="M40.8796 25.9694C40.8796 28.7824 39.3736 30.5904 37.1016 30.5904C36.5258 30.6206 35.9532 30.488 35.4494 30.2079C34.9455 29.9278 34.5307 29.5114 34.2526 29.0064H34.2096V33.4904H32.3516V21.4414H34.1516V22.9474H34.1856C34.4766 22.445 34.8984 22.031 35.4061 21.7492C35.9137 21.4675 36.4883 21.3286 37.0686 21.3474C39.3656 21.3474 40.8796 23.1634 40.8796 25.9694ZM38.9696 25.9694C38.9696 24.1364 38.0226 22.9314 36.5766 22.9314C35.1566 22.9314 34.2016 24.1614 34.2016 25.9694C34.2016 27.7934 35.1566 29.0154 36.5766 29.0154C38.0226 29.0154 38.9696 27.8184 38.9696 25.9694Z"
            fill="white" />
        <path
            d="M47.4665 27.0351C47.6045 28.2661 48.8005 29.0751 50.4355 29.0751C52.0015 29.0751 53.1285 28.2661 53.1285 27.1561C53.1285 26.1921 52.4485 25.6151 50.8395 25.2191L49.2305 24.8311C46.9505 24.2801 45.8915 23.2141 45.8915 21.4831C45.8915 19.3401 47.7585 17.8691 50.4105 17.8691C53.0345 17.8691 54.8335 19.3411 54.8935 21.4831H53.0175C52.9055 20.2441 51.8805 19.4961 50.3835 19.4961C48.8865 19.4961 47.8605 20.2541 47.8605 21.3551C47.8605 22.2331 48.5145 22.7501 50.1155 23.1451L51.4835 23.4811C54.0315 24.0811 55.0895 25.1071 55.0895 26.9231C55.0895 29.2461 53.2385 30.7011 50.2955 30.7011C47.5415 30.7011 45.6825 29.2801 45.5625 27.0341L47.4665 27.0351Z"
            fill="white" />
        <path
            d="M59.0981 19.2988V21.4418H60.8201V22.9138H59.0981V27.9048C59.0981 28.6798 59.4431 29.0418 60.1981 29.0418C60.403 29.0383 60.6076 29.024 60.8111 28.9988V30.4618C60.4709 30.5254 60.1251 30.5543 59.7791 30.5478C57.9461 30.5478 57.2311 29.8598 57.2311 28.1038V22.9128H55.9141V21.4408H57.2301V19.2988H59.0981Z"
            fill="white" />
        <path
            d="M61.8203 25.9691C61.8203 23.1201 63.4983 21.3301 66.1143 21.3301C68.7303 21.3301 70.4093 23.1201 70.4093 25.9691C70.4093 28.8181 68.7483 30.6081 66.1143 30.6081C63.4803 30.6081 61.8203 28.8251 61.8203 25.9691ZM68.5203 25.9691C68.5203 24.0151 67.6203 22.8621 66.1203 22.8621C64.6203 22.8621 63.7203 24.0241 63.7203 25.9691C63.7203 27.9311 64.6153 29.0751 66.1203 29.0751C67.6253 29.0751 68.5203 27.9301 68.5203 25.9691Z"
            fill="white" />
        <path
            d="M71.9453 21.4403H73.7173V22.9813H73.7633C73.8831 22.4999 74.1651 22.0745 74.5617 21.7765C74.9584 21.4786 75.4456 21.3263 75.9413 21.3453C76.1556 21.3445 76.3692 21.3676 76.5783 21.4143V23.1523C76.3079 23.0699 76.0259 23.032 75.7433 23.0403C75.4733 23.0294 75.2041 23.077 74.9543 23.1798C74.7044 23.2827 74.4797 23.4384 74.2957 23.6363C74.1117 23.8342 73.9727 24.0696 73.8882 24.3263C73.8037 24.5829 73.7758 24.8548 73.8063 25.1233V30.4983H71.9453V21.4403Z"
            fill="white" />
        <path
            d="M85.1377 27.8352C84.8877 29.4792 83.2867 30.6062 81.2377 30.6062C78.6037 30.6062 76.9688 28.8412 76.9688 26.0062C76.9688 23.1712 78.6128 21.3242 81.1588 21.3242C83.6588 21.3242 85.2387 23.0452 85.2387 25.7902V26.4272H78.8467V26.5392C78.8173 26.8724 78.8591 27.2081 78.9693 27.5239C79.0795 27.8397 79.2557 28.1285 79.4861 28.371C79.7165 28.6135 79.9959 28.8042 80.3056 28.9304C80.6154 29.0567 80.9485 29.1156 81.2828 29.1032C81.7219 29.1445 82.1626 29.0429 82.5394 28.8135C82.9161 28.5842 83.2088 28.2393 83.3737 27.8302L85.1377 27.8352ZM78.8577 25.1332H83.3838C83.4004 24.8473 83.3604 24.5609 83.2662 24.2905C83.1719 24.02 83.0252 23.7709 82.8345 23.5572C82.6438 23.3435 82.4128 23.1696 82.1548 23.0454C81.8967 22.9211 81.6167 22.849 81.3307 22.8332C81.2747 22.8332 81.2188 22.8332 81.1628 22.8332C80.8617 22.8315 80.5632 22.8891 80.2844 23.0028C80.0056 23.1165 79.7519 23.2839 79.5379 23.4957C79.3238 23.7074 79.1536 23.9592 79.0369 24.2368C78.9202 24.5143 78.8593 24.8121 78.8577 25.1132C78.8577 25.1199 78.8577 25.1266 78.8577 25.1332Z"
            fill="white" />
        <path
            d="M54.6498 16.0825H53.9968C52.7248 16.0825 51.3828 15.8215 51.3828 14.0615C51.4681 13.2701 51.6495 12.492 51.9228 11.7445L52.7678 11.9715L52.6458 12.3635C52.4649 12.9154 52.3452 13.4854 52.2888 14.0635C52.2888 15.2745 53.4478 15.2745 54.2318 15.2745H54.7808C55.1728 15.2745 55.7128 15.1175 55.7128 14.6215V11.1775H56.6458V13.7565C56.8467 13.8419 57.0635 13.8835 57.2818 13.8785H57.6038V14.6785H57.2818C57.0661 14.6756 56.852 14.6419 56.6458 14.5785V14.7005C56.6458 15.1595 56.2968 16.0825 54.6498 16.0825ZM54.1188 10.2365C54.0093 10.2306 53.9039 10.1928 53.8156 10.1278C53.7273 10.0628 53.6599 9.97334 53.6218 9.8705C53.5837 9.76766 53.5766 9.65592 53.6012 9.54905C53.6258 9.44218 53.6812 9.34486 53.7605 9.26907C53.8397 9.19328 53.9394 9.14234 54.0473 9.12253C54.1552 9.10272 54.2665 9.1149 54.3675 9.15757C54.4685 9.20024 54.5549 9.27154 54.6159 9.36268C54.6769 9.45382 54.7099 9.56081 54.7108 9.67048C54.7148 9.81699 54.6606 9.95911 54.5599 10.0656C54.4592 10.1721 54.3203 10.2343 54.1738 10.2385H54.1188V10.2365Z"
            fill="white" />
        <path
            d="M58.6573 13.8789C58.5501 13.4963 58.5003 13.1 58.5093 12.7029C58.4819 12.4401 58.5107 12.1746 58.5937 11.9238C58.6768 11.673 58.8122 11.4428 58.991 11.2483C59.1699 11.0539 59.388 10.8997 59.631 10.796C59.8739 10.6923 60.1362 10.6415 60.4003 10.6469C61.6373 10.6469 62.1173 11.6579 62.1173 12.8599C62.1173 13.7489 61.8033 14.9509 60.5923 14.9509C60.1932 14.9123 59.8008 14.8215 59.4253 14.6809H57.4453V13.8809L58.6573 13.8789ZM59.5983 13.9139C59.8943 14.0392 60.2095 14.1129 60.5303 14.1319C61.0703 14.1319 61.2183 13.4439 61.2183 12.8319C61.2183 12.2489 61.0523 11.4119 60.3463 11.4119C59.7103 11.4119 59.4313 12.0039 59.4313 12.7539C59.4196 13.1469 59.4757 13.539 59.5973 13.9129L59.5983 13.9139Z"
            fill="white" />
        <path
            d="M68.267 16.0836H67.614C66.342 16.0836 65 15.8226 65 14.0626C65.0856 13.2713 65.2669 12.4932 65.54 11.7456L66.386 11.9726L66.264 12.3646C66.0831 12.9165 65.9633 13.4866 65.907 14.0646C65.907 15.2756 67.066 15.2756 67.85 15.2756H68.399C68.791 15.2756 69.331 15.1186 69.331 14.6226V8.80859H70.259V13.7576C70.4599 13.843 70.6767 13.8846 70.895 13.8796H71.217V14.6796H70.895C70.6793 14.6767 70.4652 14.643 70.259 14.5796V14.7016C70.259 15.1606 69.913 16.0836 68.267 16.0836Z"
            fill="white" />
        <path
            d="M74.3547 10.6914V13.1394C74.3547 14.1764 73.7357 14.6814 72.5067 14.6814H71.0547V13.8814H72.4667C73.2067 13.8814 73.4067 13.5594 73.4067 13.0104V10.6914H74.3547ZM72.0197 16.6334C71.9102 16.6274 71.8049 16.5894 71.7168 16.5243C71.6286 16.4591 71.5614 16.3696 71.5235 16.2668C71.4855 16.1639 71.4785 16.0522 71.5032 15.9454C71.528 15.8386 71.5834 15.7414 71.6627 15.6657C71.742 15.59 71.8417 15.5392 71.9495 15.5194C72.0574 15.4997 72.1686 15.5119 72.2696 15.5546C72.3705 15.5973 72.4568 15.6686 72.5178 15.7597C72.5788 15.8508 72.6117 15.9578 72.6127 16.0674C72.6147 16.1446 72.6005 16.2214 72.5711 16.2928C72.5416 16.3642 72.4976 16.4286 72.4417 16.4819C72.3858 16.5352 72.3194 16.5762 72.2467 16.6023C72.1741 16.6284 72.0967 16.639 72.0197 16.6334ZM73.4837 16.6334C73.3742 16.6275 73.2688 16.5898 73.1805 16.5247C73.0921 16.4597 73.0248 16.3703 72.9867 16.2674C72.9486 16.1646 72.9414 16.0528 72.9661 15.946C72.9907 15.8391 73.0461 15.7418 73.1253 15.666C73.2046 15.5902 73.3043 15.5393 73.4122 15.5195C73.5201 15.4996 73.6314 15.5118 73.7324 15.5545C73.8334 15.5972 73.9197 15.6685 73.9808 15.7596C74.0418 15.8507 74.0748 15.9577 74.0757 16.0674C74.0777 16.14 74.0654 16.2123 74.0394 16.2802C74.0134 16.3481 73.9743 16.4101 73.9244 16.4629C73.8744 16.5156 73.8146 16.558 73.7482 16.5876C73.6819 16.6172 73.6103 16.6335 73.5377 16.6354H73.4837V16.6334Z"
            fill="white" />
        <path
            d="M75.0473 15.9883C75.18 16.0046 75.3136 16.0133 75.4473 16.0143C76.2153 16.0143 76.5973 15.5703 76.5973 14.6723V11.1723H77.5383V13.8813H78.4003V14.6813H77.5293C77.5402 15.2752 77.3258 15.8511 76.9293 16.2933C76.5057 16.6476 75.9651 16.831 75.4133 16.8073C75.215 16.8043 75.017 16.79 74.8203 16.7643L75.0473 15.9883ZM77.0253 10.3243C76.9159 10.3183 76.8106 10.2803 76.7224 10.2152C76.6342 10.1501 76.567 10.0605 76.5291 9.9577C76.4911 9.85485 76.4841 9.74315 76.5088 9.63635C76.5336 9.52955 76.589 9.43232 76.6683 9.35663C76.7476 9.28094 76.8473 9.2301 76.9551 9.21036C77.063 9.19062 77.1742 9.20285 77.2752 9.24554C77.3762 9.28823 77.4625 9.35952 77.5234 9.45063C77.5844 9.54174 77.6174 9.64869 77.6183 9.75832C77.6205 9.83556 77.6064 9.91239 77.577 9.98386C77.5476 10.0553 77.5036 10.1198 77.4477 10.1732C77.3918 10.2265 77.3253 10.2675 77.2525 10.2936C77.1798 10.3196 77.1024 10.3301 77.0253 10.3243Z"
            fill="white" />
        <path
            d="M81.4922 14.6824C81.1163 14.6696 80.749 14.5667 80.4212 14.3824C79.9704 14.6253 79.458 14.7296 78.9482 14.6824H78.2422V13.8824H79.0012C79.7152 13.8824 79.8552 13.7694 79.8552 13.2464V10.6914H80.7882V13.7234C81.008 13.8292 81.2492 13.8829 81.4932 13.8804H82.0772V14.6804L81.4922 14.6824ZM80.2812 9.82041C80.1717 9.81436 80.0664 9.77643 79.9783 9.71128C79.8901 9.64614 79.8229 9.55664 79.7849 9.45379C79.747 9.35094 79.74 9.23924 79.7647 9.13244C79.7894 9.02565 79.8449 8.92841 79.9242 8.85272C80.0035 8.77703 80.1032 8.72619 80.211 8.70645C80.3188 8.68671 80.4301 8.69894 80.5311 8.74163C80.632 8.78433 80.7183 8.85562 80.7793 8.94673C80.8403 9.03784 80.8732 9.14479 80.8742 9.25441C80.8764 9.33165 80.8623 9.40849 80.8329 9.47995C80.8035 9.55141 80.7594 9.61591 80.7035 9.66926C80.6476 9.72261 80.5812 9.76363 80.5084 9.78967C80.4357 9.81571 80.3582 9.82618 80.2812 9.82041Z"
            fill="white" />
        <path
            d="M84.3099 10.6905V13.1385C84.3099 14.1755 83.6919 14.6805 82.4629 14.6805H81.9219V13.8805H82.4279C83.1679 13.8805 83.3679 13.5585 83.3679 13.0095V10.6905H84.3099ZM82.9239 9.81846C82.8144 9.8124 82.7091 9.77447 82.6209 9.70933C82.5328 9.64419 82.4656 9.55469 82.4276 9.45184C82.3897 9.34899 82.3826 9.23729 82.4074 9.13049C82.4321 9.02369 82.4876 8.92646 82.5669 8.85077C82.6462 8.77508 82.7459 8.72424 82.8537 8.7045C82.9615 8.68476 83.0728 8.69699 83.1738 8.73968C83.2747 8.78237 83.361 8.85367 83.422 8.94478C83.4829 9.03588 83.5159 9.14284 83.5169 9.25246C83.519 9.3297 83.505 9.40654 83.4756 9.478C83.4462 9.54946 83.4021 9.61395 83.3462 9.6673C83.2903 9.72066 83.2238 9.76168 83.1511 9.78772C83.0783 9.81375 83.0009 9.82423 82.9239 9.81846ZM84.3879 9.81846C84.2784 9.8124 84.1731 9.77447 84.0849 9.70933C83.9968 9.64419 83.9296 9.55469 83.8916 9.45184C83.8537 9.34899 83.8467 9.23729 83.8714 9.13049C83.8961 9.02369 83.9516 8.92646 84.0309 8.85077C84.1102 8.77508 84.2099 8.72424 84.3177 8.7045C84.4255 8.68476 84.5368 8.69699 84.6378 8.73968C84.7387 8.78237 84.825 8.85367 84.886 8.94478C84.9469 9.03588 84.9799 9.14284 84.9809 9.25246C84.983 9.3297 84.969 9.40654 84.9396 9.478C84.9102 9.54946 84.8661 9.61395 84.8102 9.6673C84.7543 9.72066 84.6878 9.76168 84.6151 9.78772C84.5423 9.81375 84.4649 9.82423 84.3879 9.81846Z"
            fill="white" />
    </g>
    <defs>
        <clipPath id="clip0_719_93487">
            <rect width="119.664" height="40" fill="white" transform="translate(0.859375)" />
        </clipPath>
    </defs>
</svg>