<svg width="41" height="40" viewBox="0 0 41 40" fill="none" xmlns="http://www.w3.org/2000/svg">
<circle cx="20.7188" cy="20" r="20" fill="#FCEDEE"/>
<g clip-path="url(#clip0_719_96121)">
<path d="M28.8452 14.6022H25.087V13.099C25.087 12.7003 24.9286 12.3179 24.6467 12.036C24.3648 11.7541 23.9824 11.5957 23.5837 11.5957H19.0739C18.6752 11.5957 18.2929 11.7541 18.011 12.036C17.729 12.3179 17.5707 12.7003 17.5707 13.099V14.6022H13.8125V16.1055H15.3158V27.38C15.3158 27.9781 15.5533 28.5516 15.9762 28.9745C16.3991 29.3973 16.9726 29.6349 17.5707 29.6349H25.087C25.685 29.6349 26.2586 29.3973 26.6815 28.9745C27.1043 28.5516 27.3419 27.9781 27.3419 27.38V16.1055H28.8452V14.6022ZM19.0739 13.099H23.5837V14.6022H19.0739V13.099ZM25.8386 27.38C25.8386 27.5794 25.7595 27.7705 25.6185 27.9115C25.4775 28.0525 25.2864 28.1316 25.087 28.1316H17.5707C17.3713 28.1316 17.1801 28.0525 17.0392 27.9115C16.8982 27.7705 16.819 27.5794 16.819 27.38V16.1055H25.8386V27.38Z" fill="#C02534"/>
<path d="M20.5814 19.1113H19.0781V25.1244H20.5814V19.1113Z" fill="#C02534"/>
<path d="M23.5814 19.1113H22.0781V25.1244H23.5814V19.1113Z" fill="#C02534"/>
</g>
<defs>
<clipPath id="clip0_719_96121">
<rect width="18.0392" height="18.0392" fill="white" transform="translate(12.3125 11.5957)"/>
</clipPath>
</defs>
</svg>
