<svg width="75" height="44" viewBox="0 0 75 44" fill="none" xmlns="http://www.w3.org/2000/svg">
<g clip-path="url(#clip0_513_91438)">
<path d="M48.8138 15.1674C49.0244 13.7917 50.2913 12.8533 51.6503 13.0665C53.0092 13.2797 53.9362 14.5623 53.7256 15.938C53.515 17.3137 52.248 18.2521 50.8891 18.0389C49.5302 17.8257 48.6032 16.5431 48.8138 15.1674ZM73.4997 18.1914L71.9774 28.1363C71.2771 32.7109 67.0413 35.8483 62.5224 35.1394L47.787 32.8277C43.2681 32.1188 40.169 27.8307 40.8692 23.2561L42.3916 13.3113C43.0918 8.73666 47.3276 5.59927 51.8465 6.30818L66.582 8.61982C71.1008 9.32873 74.2 13.6168 73.4997 18.1914ZM44.1438 23.7698C43.9484 25.0461 44.2456 26.2808 44.8945 27.2991L54.8033 19.9599C56.6565 18.5872 59.4562 19.0265 60.8121 20.9025L62.251 22.8934C62.5692 23.3337 63.2077 23.4338 63.6427 23.1117L70.1288 18.3076L70.2252 17.6777C70.6438 14.9429 68.776 12.3586 66.0745 11.9348L51.3391 9.62312C48.6376 9.19932 46.0847 11.0902 45.6661 13.825L44.1438 23.7698ZM68.7029 27.6226L69.4107 22.9982L65.5909 25.8275C63.7378 27.2001 60.938 26.7609 59.5821 24.8848L58.1433 22.8939C57.825 22.4536 57.2029 22.356 56.7516 22.6756L47.6937 29.3846C47.8851 29.4486 48.0816 29.4794 48.2944 29.5128L63.0299 31.8244C65.7314 32.2482 68.2842 30.3574 68.7029 27.6226Z" fill="#03D1AB"/>
</g>
<g clip-path="url(#clip1_513_91438)">
<path d="M33.8137 10.2689C33.6251 9.49538 33.2849 8.76698 32.8129 8.12582C32.341 7.48467 31.7465 6.94348 31.064 6.53359L26.9536 4.04968C25.5774 3.22194 23.9299 2.97115 22.3696 3.35188L9.48998 6.52855C8.31988 6.81714 7.31235 7.55874 6.68904 8.59019C6.06572 9.62164 5.87768 10.8585 6.16627 12.0286L13.7833 42.9115L40.2544 36.3826L33.8137 10.2689ZM29.4974 9.12593C29.5911 9.18793 29.6812 9.25531 29.7672 9.32773L26.0097 10.2545L25.083 6.49704C25.1871 6.53946 25.2886 6.58786 25.3871 6.64201L29.4974 9.12593ZM15.9991 39.2448L9.10751 11.3031C9.01131 10.9131 9.07399 10.5008 9.28176 10.157C9.48954 9.81318 9.82538 9.56598 10.2154 9.46978L21.9803 6.56805L23.7939 13.9211L31.147 12.1076L36.5878 34.1668L15.9991 39.2448ZM15.6957 19.0387L27.4606 16.1369L28.186 19.0782L16.4211 21.9799L15.6957 19.0387ZM17.1465 24.9211L28.9115 22.0194L29.6369 24.9606L17.872 27.8624L17.1465 24.9211ZM27.3801 28.3472L30.4026 28.1728C30.5015 29.7818 29.9475 32.6844 27.2372 33.3529C26.1731 33.6144 25.0516 33.5021 24.0604 33.035C23.5178 32.821 23.3303 32.7564 22.9803 32.8428C22.503 33.1722 22.121 33.6216 21.8726 34.1456L19.1889 32.7529C19.8104 31.4466 20.907 30.4268 22.2548 29.9015C23.2354 29.6721 24.2649 29.7835 25.1737 30.2175C25.5799 30.4468 26.0571 30.5161 26.5117 30.4117C27.4279 30.1857 27.3804 28.3675 27.3801 28.3472Z" fill="#03D1AB"/>
</g>
<defs>
<clipPath id="clip0_513_91438">
<rect width="35.1677" height="31.3997" fill="white" transform="translate(39.6016 5.02393)"/>
</clipPath>
<clipPath id="clip1_513_91438">
<rect width="36.3525" height="36.3525" fill="white" transform="translate(0.664062 8.70508) rotate(-13.855)"/>
</clipPath>
</defs>
</svg>
