<svg width="41" height="40" viewBox="0 0 41 40" fill="none" xmlns="http://www.w3.org/2000/svg">
<circle cx="20.3906" cy="20" r="20" fill="#D4EDDA"/>
<g clip-path="url(#clip0_719_96116)">
<path d="M26.7636 13.5677C26.3257 13.1304 25.732 12.8848 25.1131 12.8848C24.4941 12.8848 23.9005 13.1304 23.4625 13.5677L11.9844 25.0458V28.347H15.2856L26.7636 16.8689C27.2008 16.4308 27.4463 15.8372 27.4463 15.2183C27.4463 14.5994 27.2008 14.0058 26.7636 13.5677ZM14.7547 27.0585H13.2729V25.5767L21.848 17.0081L23.3298 18.4898L14.7547 27.0585ZM25.8527 15.9579L24.2375 17.5731L22.7589 16.0913L24.3735 14.4787C24.5699 14.2822 24.8365 14.1718 25.1143 14.1718C25.3922 14.1718 25.6587 14.2822 25.8552 14.4787C26.0517 14.6752 26.1621 14.9417 26.1621 15.2196C26.1621 15.4975 26.0517 15.764 25.8552 15.9605L25.8527 15.9579Z" fill="#26A779"/>
</g>
<defs>
<clipPath id="clip0_719_96116">
<rect width="15.4622" height="15.4622" fill="white" transform="translate(11.9844 12.8848)"/>
</clipPath>
</defs>
</svg>
