<svg width="14" height="13" viewBox="0 0 14 13" fill="none" xmlns="http://www.w3.org/2000/svg">
<path fill-rule="evenodd" clip-rule="evenodd" d="M7.21875 0C5.93317 0 4.67646 0.381218 3.60755 1.09545C2.53863 1.80968 1.70551 2.82484 1.21354 4.01256C0.721566 5.20028 0.592845 6.50721 0.843649 7.76809C1.09445 9.02896 1.71352 10.1872 2.62256 11.0962C3.5316 12.0052 4.68979 12.6243 5.95066 12.8751C7.21154 13.1259 8.51847 12.9972 9.70619 12.5052C10.8939 12.0132 11.9091 11.1801 12.6233 10.1112C13.3375 9.04229 13.7187 7.78558 13.7187 6.5C13.7169 4.77666 13.0315 3.12445 11.8129 1.90586C10.5943 0.687282 8.94209 0.00186392 7.21875 0ZM7.21875 11.9167C6.14744 11.9167 5.10018 11.599 4.20941 11.0038C3.31865 10.4086 2.62438 9.56263 2.2144 8.57287C1.80443 7.5831 1.69716 6.49399 1.90617 5.44326C2.11517 4.39253 2.63106 3.42737 3.38859 2.66984C4.14612 1.9123 5.11128 1.39642 6.16201 1.18741C7.21274 0.97841 8.30185 1.08568 9.29162 1.49565C10.2814 1.90563 11.1274 2.59989 11.7225 3.49066C12.3177 4.38143 12.6354 5.42868 12.6354 6.5C12.6338 7.9361 12.0626 9.31294 11.0472 10.3284C10.0317 11.3439 8.65486 11.9151 7.21875 11.9167ZM7.2181 5.41797H6.67643C6.53277 5.41797 6.395 5.47504 6.29341 5.57662C6.19183 5.6782 6.13476 5.81598 6.13476 5.95963C6.13476 6.10329 6.19183 6.24107 6.29341 6.34265C6.395 6.44423 6.53277 6.5013 6.67643 6.5013H7.2181V9.7513C7.2181 9.89496 7.27517 10.0327 7.37675 10.1343C7.47833 10.2359 7.6161 10.293 7.75976 10.293C7.90342 10.293 8.0412 10.2359 8.14278 10.1343C8.24436 10.0327 8.30143 9.89496 8.30143 9.7513V6.5013C8.30143 6.21398 8.18729 5.93843 7.98413 5.73527C7.78096 5.5321 7.50541 5.41797 7.2181 5.41797ZM8.03125 3.51953C8.03125 3.96826 7.66748 4.33203 7.21875 4.33203C6.77002 4.33203 6.40625 3.96826 6.40625 3.51953C6.40625 3.0708 6.77002 2.70703 7.21875 2.70703C7.66748 2.70703 8.03125 3.0708 8.03125 3.51953Z" fill="#828282"/>
</svg>
