<svg width="161" height="100" viewBox="0 0 161 100" fill="none" xmlns="http://www.w3.org/2000/svg">
<g clip-path="url(#clip0_513_86327)">
<path d="M94.3915 53.6575C93.1684 54.9016 91.4992 55.5937 89.7684 55.6014C88.9069 55.617 88.0607 55.4537 87.2607 55.1193C86.4684 54.785 85.7454 54.2951 85.153 53.6731C83.9223 52.4368 83.23 50.7494 83.23 48.9999C83.2146 48.1291 83.3761 47.266 83.7069 46.4651C84.0377 45.6642 84.5223 44.9333 85.1453 44.3268C86.3761 43.0905 88.0377 42.3907 89.7684 42.3907C90.63 42.3751 91.4838 42.5462 92.2761 42.8727C93.0684 43.2071 93.7915 43.697 94.3838 44.319C95.6069 45.5631 96.2992 47.2426 96.2992 48.9922C96.3146 49.863 96.153 50.7183 95.8223 51.5192C95.4915 52.3201 95.0069 53.0433 94.3915 53.6498V53.6575ZM89.753 37.4298C86.5838 37.4298 83.8915 38.5573 81.6607 40.8122C79.4377 43.0671 78.3223 45.7964 78.3223 48.9999C78.3223 52.2035 79.4377 54.925 81.6684 57.1799C83.8992 59.4348 86.5992 60.5545 89.7684 60.5545C92.2377 60.5545 94.4146 59.8703 96.3069 58.5095V64.6367C96.3069 64.9711 96.3684 65.2976 96.4992 65.6087C96.6223 65.9197 96.8146 66.1918 97.0454 66.4329C97.2761 66.6661 97.553 66.8528 97.8607 66.9772C98.1684 67.1016 98.4915 67.1638 98.8223 67.1638C99.4607 67.1638 100.068 66.8994 100.515 66.4407C100.961 65.9819 101.215 65.3676 101.215 64.7222L101.199 48.9844C101.199 45.7808 100.084 43.0594 97.853 40.8044C95.6223 38.5495 92.9223 37.4298 89.753 37.4298Z" fill="#005364"/>
<path d="M124.408 40.7111H124.285C123.616 40.7111 122.97 40.9832 122.501 41.4575C122.031 41.9318 121.762 42.585 121.762 43.2615L121.777 54.8705C121.785 55.7724 121.616 56.6666 121.285 57.4986C120.954 58.3306 120.454 59.0926 119.831 59.7302C118.808 60.7877 117.454 61.4409 116.001 61.5964C114.862 61.713 113.708 61.5342 112.654 61.0754C111.601 60.6167 110.677 59.8935 109.985 58.9682C109.131 57.8408 108.685 56.4567 108.708 55.0338L108.693 43.1293C108.693 42.4917 108.439 41.8696 107.993 41.4186C107.547 40.9677 106.939 40.7111 106.301 40.7111C105.97 40.7111 105.639 40.7733 105.339 40.9055C105.031 41.0299 104.754 41.2243 104.524 41.4575C104.293 41.6908 104.101 41.9785 103.977 42.2817C103.854 42.5928 103.785 42.9193 103.785 43.2537L103.801 55.0415C103.801 58.2451 104.916 60.9666 107.147 63.2215C109.377 65.4764 112.077 66.5961 115.247 66.5961C118.416 66.5961 121.108 65.4686 123.339 63.2137C125.57 60.9588 126.677 58.2295 126.677 55.026V42.9815C126.662 42.3828 126.431 41.7996 126.008 41.3798C125.585 40.9521 125.016 40.7111 124.424 40.7111H124.408Z" fill="#005364"/>
<path d="M126.737 43.0593C126.737 43.557 126.591 44.0391 126.322 44.4512C126.053 44.8633 125.66 45.1821 125.214 45.3765C124.76 45.5631 124.268 45.6175 123.783 45.5242C123.306 45.4309 122.86 45.1898 122.514 44.8399C122.168 44.49 121.929 44.0468 121.837 43.557C121.745 43.0749 121.791 42.5695 121.976 42.1107C122.16 41.6519 122.483 41.2632 122.883 40.9832C123.291 40.7111 123.768 40.5634 124.26 40.5634C124.914 40.5634 125.545 40.8277 126.014 41.2943C126.476 41.7608 126.737 42.3984 126.737 43.0593Z" fill="#03D1AB"/>
<path d="M101.3 64.5433C101.3 65.041 101.154 65.5231 100.884 65.9352C100.615 66.3473 100.223 66.6661 99.7766 66.8605C99.3227 67.0471 98.8227 67.1015 98.3458 67.0004C97.8689 66.9071 97.4227 66.6661 97.0766 66.3162C96.7304 65.9663 96.492 65.5231 96.3997 65.0332C96.3074 64.5433 96.3535 64.0457 96.5381 63.5869C96.7227 63.1282 97.0458 62.7394 97.4535 62.4672C97.8612 62.1951 98.3381 62.0474 98.8304 62.0474C99.4843 62.0474 100.115 62.3117 100.577 62.7783C101.038 63.2448 101.3 63.8824 101.3 64.5433Z" fill="#2D5FA5"/>
<path d="M72.4227 40.8277C70.192 38.5727 67.492 37.4453 64.3227 37.453C61.1535 37.4608 58.4612 38.5883 56.2304 40.8354C54.0073 43.0981 52.892 45.8274 52.892 49.0232V57.7941C52.7227 59.2792 52.0535 60.6555 51.015 61.7208C49.992 62.7782 48.6381 63.4314 47.1843 63.5869C46.0458 63.7035 44.892 63.5247 43.8381 63.0659C42.7843 62.6072 41.8612 61.884 41.1689 60.9587C40.3227 59.8313 39.8689 58.4472 39.892 57.0243V47.8802C39.8843 47.2425 39.6304 46.6205 39.1843 46.1695C38.7381 45.7185 38.1304 45.4619 37.4919 45.4619C37.1612 45.4619 36.8381 45.5319 36.5304 45.6563C36.2227 45.7807 35.9458 45.9751 35.715 46.2084C35.4843 46.4417 35.2996 46.7216 35.1689 47.0326C35.0381 47.3436 34.9766 47.6702 34.9766 48.0046V57.0321C34.9843 60.2356 36.0996 62.9571 38.3381 65.212C40.5689 67.4669 43.2689 68.5866 46.4381 68.5866C49.6073 68.5866 52.2997 67.4592 54.5304 65.2042C56.7612 62.9493 57.8689 60.2201 57.8689 57.0165V48.0745C58.0689 46.4883 58.815 45.1276 60.092 43.9923C61.0997 43.0981 62.3689 42.5538 63.6997 42.445C66.0535 42.2584 67.9843 43.1059 69.4997 44.9721C70.3997 46.1151 70.8843 47.538 70.8689 48.9998V57.763C70.8689 58.1362 70.9381 58.5016 71.0843 58.8438C71.2227 59.1859 71.4304 59.4969 71.692 59.7613C71.9535 60.0257 72.2612 60.2278 72.5997 60.3756C72.9381 60.5155 73.2997 60.5933 73.6689 60.5855C73.9458 60.5855 74.2227 60.5311 74.4766 60.4222C74.7304 60.3134 74.9689 60.1579 75.1612 59.9557C75.3535 59.7535 75.5151 59.5203 75.6151 59.2637C75.7227 59.0071 75.7766 58.7271 75.7766 58.4472V49.0154C75.7766 45.8041 74.6612 43.0748 72.4304 40.8277H72.4227Z" fill="#005364"/>
<path d="M37.423 45.3921C36.8614 45.3921 36.3153 45.6021 35.8845 45.9597C35.4538 46.3252 35.1538 46.8306 35.0461 47.3905C34.9384 47.9503 35.0307 48.5335 35.2922 49.0311C35.5614 49.5288 35.9922 49.9253 36.5153 50.143C37.0384 50.3608 37.6153 50.3841 38.1538 50.2208C38.6922 50.0575 39.1615 49.6998 39.4691 49.2255C39.7768 48.7512 39.923 48.1836 39.8691 47.616C39.8153 47.0483 39.5615 46.5196 39.1691 46.1153C38.9461 45.882 38.6691 45.6954 38.3691 45.571C38.0691 45.4466 37.7461 45.3844 37.423 45.3921Z" fill="#03D1AB"/>
<path d="M115.254 40.4078C116.97 40.4078 118.354 39.0004 118.354 37.2742C118.354 35.548 116.962 34.1406 115.254 34.1406C113.547 34.1406 112.154 35.548 112.154 37.2742C112.154 39.0004 113.547 40.4078 115.254 40.4078Z" fill="#0F5565"/>
</g>
<defs>
<clipPath id="clip0_513_86327">
<rect width="160" height="100" fill="white" transform="translate(0.857422)"/>
</clipPath>
</defs>
</svg>
