<svg width="110" height="41" viewBox="0 0 110 41" fill="none" xmlns="http://www.w3.org/2000/svg">
    <path
        d="M71.0725 23.2251C69.6201 24.7055 67.6378 25.529 65.5826 25.5383C64.5595 25.5568 63.5547 25.3625 62.6047 24.9646C61.6638 24.5667 60.8051 23.9838 60.1018 23.2436C58.6402 21.7723 57.8181 19.7644 57.8181 17.6825C57.7999 16.6462 57.9917 15.6191 58.3845 14.666C58.7773 13.713 59.3527 12.8432 60.0926 12.1215C61.5542 10.6502 63.5273 9.81747 65.5826 9.81747C66.6056 9.79896 67.6196 10.0025 68.5604 10.3912C69.5013 10.789 70.36 11.372 71.0633 12.1122C72.5157 13.5927 73.3378 15.5913 73.3378 17.6733C73.3561 18.7096 73.1643 19.7274 72.7715 20.6805C72.3787 21.6335 71.8032 22.4941 71.0725 23.2158V23.2251ZM65.5643 3.91406C61.8008 3.91406 58.6037 5.25575 55.9547 7.93911C53.3148 10.6225 51.9902 13.8703 51.9902 17.6825C51.9902 21.4947 53.3148 24.7333 55.9638 27.4167C58.6128 30.1 61.8191 31.4325 65.5826 31.4325C68.5148 31.4325 71.0999 30.6182 73.347 28.9989V36.2903C73.347 36.6882 73.4201 37.0768 73.5753 37.4469C73.7215 37.817 73.9499 38.1409 74.2239 38.4277C74.4979 38.7053 74.8268 38.9274 75.1922 39.0754C75.5576 39.2235 75.9412 39.2975 76.334 39.2975C77.0922 39.2975 77.8138 38.9829 78.3436 38.437C78.8734 37.891 79.1749 37.1601 79.1749 36.3921L79.1566 17.664C79.1566 13.8518 77.8321 10.6132 75.183 7.92986C72.534 5.24649 69.3277 3.91406 65.5643 3.91406Z"
        fill="white" />
    <path
        d="M106.716 7.81885H106.569C105.775 7.81885 105.007 8.1427 104.45 8.70713C103.893 9.27157 103.573 10.0488 103.573 10.8538L103.591 24.6685C103.601 25.7419 103.4 26.806 103.007 27.7961C102.614 28.7861 102.02 29.6929 101.28 30.4517C100.065 31.7101 98.4578 32.4873 96.7314 32.6724C95.3794 32.8112 94.0093 32.5984 92.7578 32.0524C91.5064 31.5065 90.4102 30.646 89.5881 29.5449C88.5742 28.2032 88.0443 26.5562 88.0717 24.8629L88.0535 10.6965C88.0535 9.93778 87.752 9.19754 87.2222 8.66087C86.6924 8.1242 85.9708 7.81885 85.2126 7.81885C84.8198 7.81885 84.427 7.89287 84.0708 8.05017C83.7054 8.19822 83.3766 8.42955 83.1025 8.70713C82.8285 8.98472 82.6001 9.32708 82.454 9.68795C82.3078 10.0581 82.2256 10.4467 82.2256 10.8446L82.2439 24.8721C82.2439 28.6843 83.5684 31.9229 86.2174 34.6063C88.8665 37.2896 92.0727 38.6221 95.8362 38.6221C99.5996 38.6221 102.797 37.2804 105.446 34.597C108.095 31.9136 109.41 28.6658 109.41 24.8536V10.5207C109.392 9.80824 109.118 9.11427 108.616 8.6146C108.113 8.10569 107.437 7.81885 106.734 7.81885H106.716Z"
        fill="white" />
    <path
        d="M109.483 10.6133C109.483 11.2055 109.309 11.7792 108.99 12.2696C108.67 12.76 108.204 13.1393 107.674 13.3707C107.135 13.5927 106.551 13.6575 105.975 13.5465C105.409 13.4354 104.879 13.1486 104.468 12.7322C104.057 12.3158 103.774 11.7884 103.664 11.2055C103.555 10.6318 103.609 10.0303 103.829 9.48441C104.048 8.93849 104.431 8.47584 104.906 8.14273C105.391 7.81887 105.957 7.64307 106.542 7.64307C107.318 7.64307 108.067 7.95767 108.624 8.51285C109.172 9.06803 109.483 9.82677 109.483 10.6133Z"
        fill="#03D1AB" />
    <path
        d="M79.2749 36.1792C79.2749 36.7714 79.1014 37.3451 78.7817 37.8355C78.4619 38.3259 77.9961 38.7053 77.4663 38.9366C76.9273 39.1587 76.3336 39.2234 75.7672 39.1031C75.2009 38.9921 74.6711 38.7053 74.26 38.2889C73.849 37.8725 73.5658 37.3451 73.4562 36.7621C73.3466 36.1792 73.4014 35.587 73.6206 35.0411C73.8398 34.4952 74.2235 34.0325 74.7076 33.7086C75.1918 33.3848 75.7581 33.209 76.3427 33.209C77.1192 33.209 77.8682 33.5236 78.4163 34.0788C78.9643 34.6339 79.2749 35.3927 79.2749 36.1792Z"
        fill="#2D5FA5" />
    <path
        d="M44.9839 7.95774C42.3349 5.27437 39.1286 3.93269 35.3652 3.94194C31.6017 3.9512 28.4046 5.29288 25.7556 7.96699C23.1157 10.6596 21.7911 13.9074 21.7911 17.7104V28.1478C21.5902 29.9151 20.7955 31.5529 19.5623 32.8205C18.3474 34.0789 16.7397 34.8562 15.0132 35.0412C13.6613 35.18 12.2911 34.9672 11.0397 34.4213C9.78824 33.8754 8.69209 33.0148 7.86997 31.9137C6.86516 30.572 6.32622 28.925 6.35362 27.2317V16.3502C6.34449 15.5915 6.04305 14.8512 5.51324 14.3145C4.98343 13.7779 4.2618 13.4725 3.50362 13.4725C3.11083 13.4725 2.72718 13.5558 2.36179 13.7038C1.99641 13.8519 1.66756 14.0832 1.39353 14.3608C1.11949 14.6384 0.900256 14.9715 0.744967 15.3416C0.589679 15.7117 0.516602 16.1004 0.516602 16.4982V27.241C0.525736 31.0532 1.85026 34.2918 4.50843 36.9751C7.15747 39.6585 10.3637 40.9909 14.1272 40.9909C17.8906 40.9909 21.0878 39.6492 23.7368 36.9659C26.3858 34.2825 27.7012 31.0347 27.7012 27.2225V16.5815C27.9387 14.6939 28.8248 13.0746 30.3411 11.7237C31.5378 10.6596 33.045 10.0119 34.6253 9.88236C37.4205 9.66029 39.7133 10.6689 41.5128 12.8896C42.5815 14.2498 43.157 15.9431 43.1387 17.6826V28.1108C43.1387 28.5549 43.221 28.9898 43.3945 29.3969C43.5589 29.804 43.8056 30.1742 44.1161 30.4888C44.4267 30.8034 44.7921 31.0439 45.194 31.2198C45.596 31.3863 46.0253 31.4788 46.4637 31.4696C46.7926 31.4696 47.1214 31.4048 47.4229 31.2753C47.7243 31.1457 48.0075 30.9607 48.2359 30.7201C48.4642 30.4795 48.6561 30.2019 48.7748 29.8966C48.9027 29.5912 48.9666 29.2581 48.9666 28.925V17.7011C48.9666 13.8797 47.6421 10.6319 44.9931 7.95774H44.9839Z"
        fill="white" />
    <path
        d="M3.42185 13.3892C2.75503 13.3892 2.10647 13.639 1.59493 14.0647C1.08339 14.4996 0.727142 15.101 0.599257 15.7672C0.471372 16.4334 0.580988 17.1274 0.891565 17.7196C1.21128 18.3118 1.72282 18.7837 2.34397 19.0428C2.96512 19.3019 3.65022 19.3296 4.28964 19.1353C4.92907 18.941 5.48628 18.5154 5.85166 17.9509C6.21705 17.3865 6.39061 16.711 6.32666 16.0356C6.26272 15.3601 5.96128 14.7309 5.49541 14.2497C5.23051 13.9721 4.90166 13.7501 4.54541 13.602C4.18916 13.454 3.80551 13.3799 3.42185 13.3892Z"
        fill="#03D1AB" />
    <path
        d="M95.8453 7.45791C97.8823 7.45791 99.5266 5.78312 99.5266 3.72895C99.5266 1.67479 97.8732 0 95.8453 0C93.8174 0 92.1641 1.67479 92.1641 3.72895C92.1641 5.78312 93.8174 7.45791 95.8453 7.45791Z"
        fill="white" />
</svg>