<svg width="25" height="24" viewBox="0 0 25 24" fill="none" xmlns="http://www.w3.org/2000/svg">
<g clip-path="url(#clip0_740_15922)">
<path d="M20.9638 7.3C20.6238 5.39 18.9638 4 17.0238 4H16.8638C16.9738 3.69 17.0338 3.35 17.0338 3C17.0338 1.35 15.6837 0 14.0337 0H10.0337C8.38375 0 7.03375 1.35 7.03375 3C7.03375 3.35 7.09375 3.69 7.20375 4H7.04375C5.10375 4 3.44375 5.39 3.10375 7.3L0.84375 20H8.03375C8.03375 22.21 9.82375 24 12.0337 24C14.2437 24 16.0337 22.21 16.0337 20H23.2238L20.9538 7.3H20.9638ZM9.03375 3C9.03375 2.45 9.48375 2 10.0337 2H14.0337C14.5837 2 15.0337 2.45 15.0337 3C15.0337 3.55 14.5837 4 14.0337 4H10.0337C9.48375 4 9.03375 3.55 9.03375 3ZM12.0337 22C10.9337 22 10.0337 21.1 10.0337 20H14.0337C14.0337 21.1 13.1337 22 12.0337 22ZM3.22375 18L5.07375 7.65C5.24375 6.69 6.07375 6 7.04375 6H17.0238C17.9937 6 18.8237 6.69 18.9937 7.65L20.8438 18H3.22375Z" fill="white"/>
</g>
<defs>
<clipPath id="clip0_740_15922">
<rect width="24" height="24" fill="white" transform="translate(0.03125)"/>
</clipPath>
</defs>
</svg>
