<svg width="25" height="25" viewBox="0 0 25 25" fill="none" xmlns="http://www.w3.org/2000/svg">
<g clip-path="url(#clip0_740_15833)">
<path d="M24.5312 16.5V24.5H16.5312C13.5763 24.5 10.9963 22.885 9.61125 20.496C10.3802 20.49 11.1292 20.405 11.8532 20.248C12.9542 21.619 14.6403 22.5 16.5312 22.5H22.5312V16.5C22.5312 14.609 21.6502 12.923 20.2792 11.822C20.4352 11.098 20.5212 10.349 20.5273 9.58C22.9163 10.965 24.5312 13.545 24.5312 16.5ZM18.5312 9.5C18.5312 4.537 14.4942 0.5 9.53125 0.5C4.56825 0.5 0.53125 4.537 0.53125 9.5V18.5H9.53125C14.4942 18.5 18.5312 14.463 18.5312 9.5ZM2.53125 9.5C2.53125 5.641 5.67125 2.5 9.53125 2.5C13.3912 2.5 16.5312 5.641 16.5312 9.5C16.5312 13.359 13.3912 16.5 9.53125 16.5H2.53125V9.5ZM10.5312 11.005C10.5312 10.693 10.7912 10.232 10.9782 10.129C12.1022 9.508 12.7072 8.237 12.4843 6.965C12.2712 5.753 11.2762 4.759 10.0673 4.548C9.18125 4.387 8.28425 4.629 7.60425 5.201C6.92225 5.773 6.53225 6.611 6.53225 7.5H8.53225C8.53225 7.203 8.66225 6.924 8.89025 6.733C9.12025 6.54 9.41625 6.462 9.72225 6.517C10.1132 6.585 10.4473 6.918 10.5153 7.31C10.6083 7.841 10.3033 8.217 10.0133 8.376C9.16825 8.841 8.53225 9.971 8.53225 11.004V11.499H10.5323V11.004L10.5312 11.005ZM10.5312 12.5H8.53125V14.5H10.5312V12.5Z" fill="white"/>
</g>
<defs>
<clipPath id="clip0_740_15833">
<rect width="24" height="24" fill="white" transform="translate(0.53125 0.5)"/>
</clipPath>
</defs>
</svg>
