<svg width="26" height="24" viewBox="0 0 26 24" fill="none" xmlns="http://www.w3.org/2000/svg">
<g clip-path="url(#clip0_740_15853)">
<path d="M20.4319 16.777C22.095 14.6434 22.8544 11.9842 22.5572 9.33473C22.2601 6.68525 20.9285 4.24219 18.8305 2.49732C16.7325 0.752445 14.0239 -0.164675 11.2498 -0.0694322C8.47577 0.0258105 5.84229 1.12634 3.87949 3.01064C1.91668 4.89493 0.770294 7.42307 0.671083 10.0862C0.571872 12.7492 1.52721 15.3495 3.34478 17.3636C5.16235 19.3777 7.70721 20.656 10.4671 20.9413C13.227 21.2265 15.9969 20.4975 18.2194 18.901L23.5319 24.001L25.7444 21.881L20.4319 16.777ZM11.6819 18.001C10.1368 18.001 8.62629 17.5611 7.34153 16.737C6.05677 15.9129 5.05542 14.7415 4.46411 13.3711C3.8728 12.0007 3.71809 10.4927 4.01954 9.0378C4.32098 7.58294 5.06505 6.24657 6.15765 5.19767C7.25025 4.14878 8.6423 3.43447 10.1578 3.14508C11.6733 2.85569 13.2441 3.00422 14.6716 3.57188C16.0992 4.13953 17.3193 5.10083 18.1778 6.3342C19.0362 7.56756 19.4944 9.01761 19.4944 10.501C19.4925 12.4895 18.6688 14.3961 17.2041 15.8022C15.7394 17.2083 13.7533 17.9991 11.6819 18.001Z" fill="white"/>
</g>
<defs>
<clipPath id="clip0_740_15853">
<rect width="25" height="24" fill="white" transform="translate(0.742188)"/>
</clipPath>
</defs>
</svg>
