<svg width="25" height="24" viewBox="0 0 25 24" fill="none" xmlns="http://www.w3.org/2000/svg">
<g clip-path="url(#clip0_740_15821)">
<path d="M15.0336 0H9.03362V3.513C7.99088 3.88194 7.02508 4.43993 6.18462 5.159L3.14062 3.4L0.140625 8.6L3.18362 10.355C2.98373 11.4426 2.98373 12.5574 3.18362 13.645L0.140625 15.4L3.14062 20.6L6.18462 18.841C7.02508 19.5601 7.99088 20.1181 9.03362 20.487V24H15.0336V20.487C16.0764 20.1181 17.0422 19.5601 17.8826 18.841L20.9266 20.6L23.9266 15.4L20.8836 13.645C21.0835 12.5574 21.0835 11.4426 20.8836 10.355L23.9266 8.6L20.9266 3.4L17.8826 5.158C17.0421 4.43928 16.0763 3.88163 15.0336 3.513V0ZM11.0336 2H13.0336V5.027L13.7846 5.221C15.0166 5.54015 16.138 6.18988 17.0276 7.1L17.5706 7.653L20.1936 6.138L21.1936 7.87L18.5736 9.383L18.7796 10.129C19.1183 11.3561 19.1183 12.6519 18.7796 13.879L18.5736 14.625L21.1936 16.138L20.1936 17.87L17.5706 16.351L17.0276 16.9C16.1375 17.8087 15.0162 18.457 13.7846 18.775L13.0336 18.973V22H11.0336V18.973L10.2826 18.779C9.05061 18.4598 7.92923 17.8101 7.03962 16.9L6.49662 16.347L3.87362 17.866L2.87362 16.134L5.49362 14.621L5.28762 13.875C4.94898 12.6479 4.94898 11.3521 5.28762 10.125L5.49362 9.379L2.87362 7.866L3.87362 6.134L6.49662 7.649L7.03962 7.096C7.92971 6.18734 9.05105 5.53902 10.2826 5.221L11.0336 5.027V2ZM12.0336 8C11.2425 8 10.4691 8.2346 9.81134 8.67412C9.15355 9.11365 8.64086 9.73836 8.33811 10.4693C8.03536 11.2002 7.95614 12.0044 8.11048 12.7804C8.26482 13.5563 8.64579 14.269 9.2052 14.8284C9.76461 15.3878 10.4773 15.7688 11.2533 15.9231C12.0292 16.0775 12.8335 15.9983 13.5644 15.6955C14.2953 15.3928 14.92 14.8801 15.3595 14.2223C15.799 13.5645 16.0336 12.7911 16.0336 12C16.0336 10.9391 15.6122 9.92172 14.8621 9.17157C14.1119 8.42143 13.0945 8 12.0336 8ZM12.0336 14C11.6381 14 11.2514 13.8827 10.9225 13.6629C10.5936 13.4432 10.3372 13.1308 10.1859 12.7654C10.0345 12.3999 9.99488 11.9978 10.0721 11.6098C10.1492 11.2219 10.3397 10.8655 10.6194 10.5858C10.8991 10.3061 11.2555 10.1156 11.6434 10.0384C12.0314 9.96126 12.4335 10.0009 12.799 10.1522C13.1644 10.3036 13.4768 10.56 13.6966 10.8889C13.9163 11.2178 14.0336 11.6044 14.0336 12C14.0336 12.5304 13.8229 13.0391 13.4478 13.4142C13.0728 13.7893 12.5641 14 12.0336 14Z" fill="white"/>
</g>
<defs>
<clipPath id="clip0_740_15821">
<rect width="24" height="24" fill="white" transform="matrix(1 0 0 -1 0.03125 24)"/>
</clipPath>
</defs>
</svg>
