<svg width="15" height="15" viewBox="0 0 15 15" fill="none" xmlns="http://www.w3.org/2000/svg">
<g clip-path="url(#clip0_719_96585)">
<path d="M13.5495 2.35872H10.6328V1.19206C10.6328 0.882638 10.5099 0.585892 10.2911 0.367099C10.0723 0.148307 9.77557 0.0253906 9.46615 0.0253906L5.96615 0.0253906C5.65673 0.0253906 5.35998 0.148307 5.14119 0.367099C4.9224 0.585892 4.79948 0.882638 4.79948 1.19206V2.35872H1.88281V3.52539H3.04948V12.2754C3.04948 12.7395 3.23385 13.1846 3.56204 13.5128C3.89023 13.841 4.33535 14.0254 4.79948 14.0254H10.6328C11.0969 14.0254 11.5421 13.841 11.8703 13.5128C12.1984 13.1846 12.3828 12.7395 12.3828 12.2754V3.52539H13.5495V2.35872ZM5.96615 1.19206H9.46615V2.35872H5.96615V1.19206ZM11.2161 12.2754C11.2161 12.4301 11.1547 12.5785 11.0453 12.6879C10.9359 12.7973 10.7875 12.8587 10.6328 12.8587H4.79948C4.64477 12.8587 4.4964 12.7973 4.387 12.6879C4.2776 12.5785 4.21615 12.4301 4.21615 12.2754V3.52539H11.2161V12.2754Z" fill="#C02534"/>
<path d="M7.13542 5.85938H5.96875V10.526H7.13542V5.85938Z" fill="#C02534"/>
<path d="M9.46354 5.85938H8.29688V10.526H9.46354V5.85938Z" fill="#C02534"/>
</g>
<defs>
<clipPath id="clip0_719_96585">
<rect width="14" height="14" fill="white" transform="translate(0.71875 0.0253906)"/>
</clipPath>
</defs>
</svg>
