<svg width="21" height="21" viewBox="0 0 21 21" fill="none" xmlns="http://www.w3.org/2000/svg">
<g clip-path="url(#clip0_719_96592)">
<path d="M18.2188 20.0247H16.5521V15.8222C16.5514 15.1689 16.2916 14.5425 15.8296 14.0805C15.3676 13.6186 14.7413 13.3587 14.0879 13.3581H7.34958C6.69625 13.3587 6.06986 13.6186 5.60789 14.0805C5.14591 14.5425 4.88608 15.1689 4.88542 15.8222V20.0247H3.21875V15.8222C3.22007 14.7271 3.65571 13.6772 4.4301 12.9028C5.2045 12.1284 6.25442 11.6927 7.34958 11.6914H14.0879C15.1831 11.6927 16.233 12.1284 17.0074 12.9028C17.7818 13.6772 18.2174 14.7271 18.2188 15.8222V20.0247Z" fill="#BCBCBC"/>
<path d="M10.7188 10.0254C9.72985 10.0254 8.76315 9.73215 7.9409 9.18274C7.11866 8.63333 6.47779 7.85244 6.09935 6.93881C5.72092 6.02518 5.6219 5.01985 5.81483 4.04994C6.00775 3.08004 6.48396 2.18912 7.18322 1.48986C7.88248 0.790596 8.7734 0.314393 9.7433 0.121466C10.7132 -0.0714596 11.7185 0.0275571 12.6322 0.405995C13.5458 0.784433 14.3267 1.4253 14.8761 2.24754C15.4255 3.06979 15.7188 4.03649 15.7188 5.02539C15.7174 6.35107 15.1902 7.62207 14.2528 8.55947C13.3154 9.49686 12.0444 10.0241 10.7188 10.0254ZM10.7188 1.69206C10.0595 1.69206 9.41502 1.88756 8.86685 2.25383C8.31869 2.6201 7.89145 3.14069 7.63915 3.74978C7.38686 4.35887 7.32085 5.02909 7.44947 5.67569C7.57809 6.3223 7.89555 6.91624 8.36173 7.38242C8.8279 7.84859 9.42185 8.16606 10.0685 8.29468C10.7151 8.4233 11.3853 8.35728 11.9944 8.10499C12.6035 7.8527 13.124 7.42546 13.4903 6.87729C13.8566 6.32913 14.0521 5.68466 14.0521 5.02539C14.0521 4.14134 13.7009 3.29349 13.0758 2.66837C12.4507 2.04325 11.6028 1.69206 10.7188 1.69206Z" fill="#BCBCBC"/>
</g>
<defs>
<clipPath id="clip0_719_96592">
<rect width="20" height="20" fill="white" transform="translate(0.71875 0.0253906)"/>
</clipPath>
</defs>
</svg>
