<svg width="46" height="45" viewBox="0 0 46 45" fill="none" xmlns="http://www.w3.org/2000/svg">
<g clip-path="url(#clip0_476_6114)">
<path fill-rule="evenodd" clip-rule="evenodd" d="M44.0673 1.64752C45.1222 2.70242 45.7148 4.13316 45.7148 5.625V16.875H43.8398V45H2.58984V16.875H0.714844V5.625C0.714844 4.13316 1.30748 2.70242 2.36237 1.64752C3.41726 0.592632 4.848 0 6.33984 0H40.0898C41.5817 0 43.0124 0.592632 44.0673 1.64752ZM5.01402 4.29917C4.66239 4.65081 4.46484 5.12772 4.46484 5.625V13.125H41.9648V5.625C41.9648 5.12772 41.7673 4.65081 41.4157 4.29917C41.064 3.94754 40.5871 3.75 40.0898 3.75H6.33984C5.84256 3.75 5.36565 3.94754 5.01402 4.29917ZM6.33984 41.25H40.0898V16.875H6.33984V41.25ZM15.7148 22.5H30.7148V26.25H15.7148V22.5Z" fill="#03D1AB"/>
</g>
<defs>
<clipPath id="clip0_476_6114">
<rect width="45" height="45" fill="white" transform="translate(0.714844)"/>
</clipPath>
</defs>
</svg>
