<svg width="46" height="45" viewBox="0 0 46 45" fill="none" xmlns="http://www.w3.org/2000/svg">
<path d="M26.9648 24.375H30.7148V28.125H26.9648V24.375ZM34.4648 28.125H38.2148V24.375H34.4648V28.125ZM26.9648 35.625H30.7148V31.875H26.9648V35.625ZM34.4648 35.625H38.2148V31.875H34.4648V35.625ZM26.9648 13.125H30.7148V9.375H26.9648V13.125ZM34.4648 13.125H38.2148V9.375H34.4648V13.125ZM26.9648 20.625H30.7148V16.875H26.9648V20.625ZM34.4648 20.625H38.2148V16.875H34.4648V20.625ZM45.7148 5.625V45H0.714844V16.5544C0.714844 15.0525 1.29984 13.6387 2.36297 12.5756L7.43859 7.5C9.85547 5.08125 14.0742 5.08125 16.4911 7.5L19.4648 10.4738V5.625C19.4648 2.52375 21.9886 0 25.0898 0H40.0898C43.1911 0 45.7148 2.52375 45.7148 5.625ZM19.4648 16.5544C19.4648 16.0538 19.2698 15.5813 18.9155 15.2269L13.8398 10.1512C12.8536 9.165 11.0761 9.165 10.0898 10.1512L5.01422 15.2269C4.65984 15.5813 4.46484 16.0519 4.46484 16.5544V41.25H19.4648V16.5544ZM41.9648 5.625C41.9648 4.59188 41.123 3.75 40.0898 3.75H25.0898C24.0567 3.75 23.2148 4.59188 23.2148 5.625V41.25H41.9648V5.625ZM10.0898 28.125H13.8398V24.375H10.0898V28.125ZM10.0898 20.625H13.8398V16.875H10.0898V20.625ZM10.0898 35.625H13.8398V31.875H10.0898V35.625Z" fill="#03D1AB"/>
</svg>
