<svg width="45" height="45" viewBox="0 0 45 45" fill="none" xmlns="http://www.w3.org/2000/svg">
<path d="M26.25 24.375H30V28.125H26.25V24.375ZM33.75 28.125H37.5V24.375H33.75V28.125ZM26.25 35.625H30V31.875H26.25V35.625ZM33.75 35.625H37.5V31.875H33.75V35.625ZM26.25 13.125H30V9.375H26.25V13.125ZM33.75 13.125H37.5V9.375H33.75V13.125ZM26.25 20.625H30V16.875H26.25V20.625ZM33.75 20.625H37.5V16.875H33.75V20.625ZM45 5.625V45H0V16.5544C0 15.0525 0.585 13.6387 1.64813 12.5756L6.72375 7.5C9.14062 5.08125 13.3594 5.08125 15.7762 7.5L18.75 10.4738V5.625C18.75 2.52375 21.2738 0 24.375 0H39.375C42.4762 0 45 2.52375 45 5.625ZM18.75 16.5544C18.75 16.0538 18.555 15.5813 18.2006 15.2269L13.125 10.1512C12.1388 9.165 10.3612 9.165 9.375 10.1512L4.29938 15.2269C3.945 15.5813 3.75 16.0519 3.75 16.5544V41.25H18.75V16.5544ZM41.25 5.625C41.25 4.59188 40.4081 3.75 39.375 3.75H24.375C23.3419 3.75 22.5 4.59188 22.5 5.625V41.25H41.25V5.625ZM9.375 28.125H13.125V24.375H9.375V28.125ZM9.375 20.625H13.125V16.875H9.375V20.625ZM9.375 35.625H13.125V31.875H9.375V35.625Z" fill="#03D1AB"/>
</svg>
