<svg width="46" height="45" viewBox="0 0 46 45" fill="none" xmlns="http://www.w3.org/2000/svg">
<g clip-path="url(#clip0_427_85519)">
<path d="M21.3398 28.125H17.5898V24.375H21.3398V28.125ZM28.8398 24.375H25.0898V28.125H28.8398V24.375ZM21.3398 31.875H17.5898V35.625H21.3398V31.875ZM28.8398 31.875H25.0898V35.625H28.8398V31.875ZM21.3398 9.375H17.5898V13.125H21.3398V9.375ZM28.8398 9.375H25.0898V13.125H28.8398V9.375ZM21.3398 16.875H17.5898V20.625H21.3398V16.875ZM28.8398 16.875H25.0898V20.625H28.8398V16.875ZM45.7148 15C45.7148 11.8988 43.1911 9.375 40.0898 9.375H36.3398V5.625C36.3398 2.52375 33.8161 0 30.7148 0H15.7148C12.6136 0 10.0898 2.52375 10.0898 5.625V16.875H6.33984C3.23859 16.875 0.714844 19.3988 0.714844 22.5V45H45.7148V15ZM4.46484 22.5C4.46484 21.465 5.30672 20.625 6.33984 20.625H13.8398V5.625C13.8398 4.59 14.6817 3.75 15.7148 3.75H30.7148C31.748 3.75 32.5898 4.59 32.5898 5.625V13.125H40.0898C41.123 13.125 41.9648 13.965 41.9648 15V41.25H4.46484V22.5ZM38.2148 24.375H34.4648V28.125H38.2148V24.375ZM38.2148 31.875H34.4648V35.625H38.2148V31.875ZM11.9648 24.375H8.21484V28.125H11.9648V24.375ZM11.9648 31.875H8.21484V35.625H11.9648V31.875ZM38.2148 16.875H34.4648V20.625H38.2148V16.875Z" fill="#03D1AB"/>
</g>
<defs>
<clipPath id="clip0_427_85519">
<rect width="45" height="45" fill="white" transform="translate(0.714844)"/>
</clipPath>
</defs>
</svg>
