<svg width="154" height="102" viewBox="0 0 154 102" fill="none" xmlns="http://www.w3.org/2000/svg">
    <path d="M92.1406 2.25195H90.4219V3.95739H92.1406V2.25195Z" fill="white" />
    <path d="M127.867 23.457H126.148V25.1625H127.867V23.457Z" fill="white" />
    <path
        d="M147.027 21.6291C147.45 21.4292 147.79 21.1436 148.049 20.7641C148.307 20.3888 148.488 19.9318 148.594 19.4014C148.701 18.8669 148.754 18.2672 148.754 17.6021V5.66406H147.036V17.6021C147.036 18.0836 147.011 18.4916 146.962 18.8261C146.913 19.1607 146.826 19.43 146.703 19.6381C146.58 19.8421 146.416 19.993 146.211 20.0869C146.002 20.1807 145.735 20.2256 145.407 20.2256C145.251 20.2256 145.112 20.2174 145.001 20.2052C144.886 20.1929 144.73 20.1562 144.529 20.0991L144.078 21.7393C144.55 21.8698 145.017 21.931 145.473 21.931C146.084 21.9269 146.605 21.829 147.027 21.6291Z"
        fill="white" />
    <path
        d="M141.125 2.63996H138.766V2.2442C138.766 2.02796 138.811 1.86068 138.905 1.74236C138.983 1.64444 139.168 1.59548 139.435 1.59548H140.616V0.408203H139.406C138.75 0.408203 138.237 0.579563 137.892 0.918203C137.544 1.25684 137.367 1.81172 137.367 2.55836V3.94964H141.129V2.63996H141.125Z"
        fill="white" />
    <path d="M124.43 23.457H122.711V25.1625H124.43V23.457Z" fill="white" />
    <path d="M95.5781 2.25195H93.8594V3.95739H95.5781V2.25195Z" fill="white" />
    <path
        d="M133.386 15.8845C134.038 16.3455 134.793 16.6882 135.65 16.9085C136.507 17.1289 137.418 17.239 138.378 17.239H138.833L139.412 16.0354V17.7286C139.412 18.6221 139.153 19.2627 138.64 19.6462C138.124 20.0297 137.402 20.2215 136.471 20.2215C135.941 20.2215 135.466 20.1725 135.043 20.0705C134.621 19.9726 134.137 19.8013 133.595 19.5605L133.058 21.2007C133.714 21.4414 134.301 21.625 134.809 21.7433C135.318 21.8657 135.831 21.9229 136.343 21.9229C138.017 21.9229 139.235 21.5271 139.994 20.7397C140.753 19.9481 141.13 18.8873 141.13 17.5532V5.66406H138.382C137.324 5.66406 136.356 5.81502 135.482 6.11286C134.608 6.4107 133.862 6.8187 133.238 7.33686C132.615 7.85503 132.131 8.47518 131.79 9.19326C131.446 9.91134 131.273 10.6906 131.273 11.527C131.273 12.5348 131.462 13.3997 131.844 14.1178C132.217 14.8318 132.734 15.4234 133.386 15.8845ZM133.386 9.84198C133.648 9.33198 134.001 8.89543 134.436 8.53231C134.871 8.16919 135.371 7.89174 135.929 7.69182C136.471 7.50006 137.032 7.40214 137.615 7.39806V7.39398H140.392L139.412 7.8795V15.5377H137.672C137.028 15.5377 136.425 15.4479 135.859 15.2684C135.293 15.0929 134.797 14.8318 134.366 14.4891C133.936 14.1464 133.599 13.7302 133.357 13.2325C133.115 12.7347 132.992 12.1676 132.992 11.527C132.988 10.915 133.119 10.352 133.386 9.84198Z"
        fill="white" />
    <path
        d="M90.8944 21.6903H94.463V20.4133C94.4958 20.4745 94.5327 20.5357 94.5696 20.5887C94.8281 20.9641 95.1685 21.2537 95.591 21.4537C96.0135 21.6536 96.5303 21.7515 97.1456 21.7515H128.463V5.66406H126.745V20.0501H124.96H97.2071C96.879 20.0501 96.6083 20.0053 96.4032 19.9114C96.1981 19.8176 96.0299 19.6707 95.911 19.4626C95.792 19.2545 95.7059 18.9853 95.6525 18.6507C95.6033 18.3161 95.5787 17.9081 95.5787 17.4267V5.66406H90.9354C86.1854 5.66406 82.9531 9.40543 82.9531 13.6772V13.7221C82.9572 17.9938 86.1444 21.6903 90.8944 21.6903ZM84.7867 13.6323C84.7867 10.1113 87.3298 7.27975 90.8944 7.27975H94.9142L93.86 7.80198V17.4267C93.86 18.0958 93.9133 18.6956 94.02 19.226C94.0815 19.5361 94.1718 19.8176 94.2866 20.0746H90.9354C87.3667 20.0746 84.7826 17.1982 84.7826 13.6772V13.6323H84.7867Z"
        fill="white" />
    <path
        d="M74.3626 17.4542L75.1133 19.4207L64.2023 5.64258H62.5V21.6566H64.272V9.58794L63.2629 7.25418L74.6867 21.6566H76.1387V5.64258H74.3626V17.4542Z"
        fill="white" />
    <path
        d="M98.8251 47.2384L108.727 37.8503V31.4121H82.2617V38.7439H95.8307L100.864 35.5288L88.2997 48.0748L89.6451 53.5176H93.226C98.0375 53.5176 100.892 55.2964 100.892 58.4625V58.5727C100.892 61.4613 98.5995 63.2932 95.3549 63.2932C91.3843 63.2932 88.5868 61.6286 85.9001 58.6257L79.9688 64.2357C83.3241 68.1811 88.193 70.9555 95.2441 70.9555C103.973 70.9555 109.342 65.5658 109.342 58.234V58.1239C109.346 50.9063 104.141 48.1279 98.8251 47.2384Z"
        fill="white" />
    <path
        d="M51.3192 5.36914C46.4133 5.36914 43.0703 9.2329 43.0703 13.6515V13.6964C43.0703 18.111 46.3641 21.9299 51.2741 21.9299C56.184 21.9299 59.5229 18.0661 59.5229 13.6515V13.6067C59.5188 9.18802 56.225 5.36914 51.3192 5.36914ZM57.632 13.6964C57.632 17.3317 55.0068 20.2611 51.3192 20.2611C47.6316 20.2611 44.9613 17.2868 44.9613 13.6515V13.6067C44.9613 9.97138 47.5906 7.04194 51.2741 7.04194C54.9617 7.04194 57.632 10.0163 57.632 13.6515V13.6964Z"
        fill="white" />
    <path
        d="M132.433 30.7422C120.349 30.7422 111.562 39.7957 111.562 50.8484V50.9586C111.562 62.0113 120.234 70.9547 132.318 70.9547C144.402 70.9547 153.188 61.9011 153.188 50.8484V50.7383C153.192 39.6856 144.517 30.7422 132.433 30.7422ZM144.185 50.9586C144.185 57.6253 139.373 63.068 132.433 63.068C125.497 63.068 120.57 57.5151 120.57 50.8484V50.7383C120.57 44.0716 125.382 38.6288 132.318 38.6288C139.254 38.6288 144.181 44.1817 144.181 50.8484V50.9586H144.185Z"
        fill="white" />
    <path d="M39.9228 5.64258H38.1016V21.6525H39.9228V5.64258Z" fill="white" />
    <path
        d="M8.86527 65.8477L10.5265 64.5747L19.0871 58.0141C26.0234 52.6815 29.3829 49.4624 29.3829 42.963V42.8528C29.3829 35.5741 24.0135 30.8535 15.9 30.8535C8.90629 30.8535 5.15717 33.685 1.2973 38.9074L7.33937 43.7382C10.2476 40.1845 12.319 38.5198 15.3421 38.5198C18.4185 38.5198 20.6007 40.2987 20.6007 43.575C20.6007 46.7941 18.6975 48.9075 13.8326 52.9059L0.796875 63.5139V70.2908H29.7807V62.9019H14.8458L8.86527 65.8477Z"
        fill="white" />
    <path
        d="M8.98581 21.7708L15.918 5.64258H13.9614L8.48128 18.7679L8.65356 20.5305L8.20235 19.4371L3.45648 8.02938L2.46382 5.64258H0.4375L7.37377 21.7708H8.98581Z"
        fill="white" />
    <path d="M20.2119 5.64258H18.3906V21.6525H20.2119V5.64258Z" fill="white" />
    <path
        d="M29.8497 12.7783C26.3016 12.0235 25.473 11.1789 25.473 9.66933V9.62445C25.473 8.18421 26.8103 7.04181 28.9063 7.04181C30.5635 7.04181 32.0648 7.56813 33.5619 8.77989L34.6202 7.38453C32.9836 6.07893 31.3018 5.41797 28.9514 5.41797C25.8873 5.41797 23.6518 7.27029 23.6518 9.78765V9.83253C23.6518 12.4641 25.3582 13.6514 29.0663 14.4552C32.4544 15.1651 33.2584 16.0096 33.2584 17.4988V17.5437C33.2584 19.1227 31.831 20.2651 29.6652 20.2651C27.4296 20.2651 25.8176 19.5103 24.1358 18.0007L23.0078 19.3267C24.9439 21.0444 27.04 21.8889 29.5954 21.8889C32.799 21.8889 35.1001 20.106 35.1001 17.3601V17.3153C35.1001 14.8632 33.443 13.5576 29.8497 12.7783Z"
        fill="white" />
    <path d="M53.1767 28.1855L55.162 30.0746L53.2587 32.0452L51.2734 30.1562L53.1767 28.1855Z"
        fill="white" />
    <path d="M57.7188 30.1562L59.7 32.0452L61.6032 30.0746L59.622 28.1855L57.7188 30.1562Z"
        fill="white" />
    <path d="M54.9297 32.6356L56.4761 34.1085L57.9569 32.5744L56.4105 31.1016L54.9297 32.6356Z"
        fill="white" />
    <path d="M60.5938 33.4773L62.1361 34.9501L63.6168 33.4161L62.0745 31.9473L60.5938 33.4773Z"
        fill="white" />
    <path d="M52.3984 34.9773L53.9448 36.4501L55.4256 34.9161L53.8833 33.4473L52.3984 34.9773Z"
        fill="white" />
    <path d="M57.5859 35.1571L59.1282 36.63L60.609 35.0959L59.0667 33.623L57.5859 35.1571Z"
        fill="white" />
    <path d="M55.5625 36.9209L56.6454 37.9572L57.6914 36.8801L56.6044 35.8438L55.5625 36.9209Z"
        fill="white" />
    <path d="M59.6562 37.7355L60.7392 38.7677L61.7851 37.6906L60.6981 36.6543L59.6562 37.7355Z"
        fill="white" />
    <path d="M71.9705 28.917L68.6016 29.5312L69.2184 32.8782L72.5873 32.2639L71.9705 28.917Z"
        fill="white" />
    <path d="M66.8985 30.4374L64.1953 30.9297L64.6895 33.6144L67.3927 33.1221L66.8985 30.4374Z"
        fill="white" />
    <path d="M72.1329 34.1826L69.4297 34.6758L69.9247 37.3605L72.6279 36.8674L72.1329 34.1826Z"
        fill="white" />
    <path d="M67.8014 34.6807L65.6953 35.0645L66.0804 37.1553L68.1865 36.7715L67.8014 34.6807Z"
        fill="white" />
    <path d="M71.9029 38.6494L69.7969 39.0332L70.182 41.124L72.288 40.7402L71.9029 38.6494Z"
        fill="white" />
    <path d="M64.6451 35.5322L62.5391 35.916L62.9242 38.0068L65.0302 37.6231L64.6451 35.5322Z"
        fill="white" />
    <path d="M68.4733 38.2705L66.3672 38.6543L66.7523 40.7451L68.8584 40.3613L68.4733 38.2705Z"
        fill="white" />
    <path d="M65.1682 38.6421L63.6875 38.9121L63.9582 40.3809L65.4389 40.1109L65.1682 38.6421Z"
        fill="white" />
    <path d="M68.0199 41.6819L66.5391 41.9512L66.809 43.4201L68.2898 43.1509L68.0199 41.6819Z"
        fill="white" />
    <path d="M78.6288 40.4902L77.1562 43.5625L80.2491 45.0231L81.7216 41.955L78.6288 40.4902Z"
        fill="white" />
    <path d="M74.236 39.0703L73.0547 41.5346L75.5363 42.7097L76.7177 40.2454L74.236 39.0703Z"
        fill="white" />
    <path d="M76.2673 45.1406L75.0859 47.6049L77.5717 48.7759L78.753 46.3157L76.2673 45.1406Z"
        fill="white" />
    <path d="M73.0126 43.293L72.0938 45.2146L74.0257 46.1245L74.9487 44.2069L73.0126 43.293Z"
        fill="white" />
    <path d="M73.9932 48.8945L73.0703 50.8121L75.0023 51.7261L75.9252 49.8044L73.9932 48.8945Z"
        fill="white" />
    <path d="M69.9501 42.1504L69.0312 44.0721L70.9632 44.9819L71.8861 43.0643L69.9501 42.1504Z"
        fill="white" />
    <path d="M71.4385 46.5898L70.5156 48.5115L72.4517 49.4214L73.3705 47.5038L71.4385 46.5898Z"
        fill="white" />
    <path d="M69.1168 45.2383L68.4688 46.5888L69.8306 47.2293L70.4746 45.8788L69.1168 45.2383Z"
        fill="white" />
    <path d="M69.6373 49.3488L68.9922 50.6973L70.3516 51.3407L70.9967 49.9923L69.6373 49.3488Z"
        fill="white" />
    <path d="M80.2916 55.2031L77.2891 56.8351L78.938 59.8176L81.9406 58.1856L80.2916 55.2031Z"
        fill="white" />
    <path d="M77.5682 51.498L75.1562 52.8118L76.4811 55.2027L78.889 53.8889L77.5682 51.498Z"
        fill="white" />
    <path d="M75.6344 57.6016L73.2266 58.9153L74.5474 61.3062L76.9593 59.9924L75.6344 57.6016Z"
        fill="white" />
    <path d="M74.0896 54.2109L72.2109 55.235L73.2405 57.0955L75.1192 56.0755L74.0896 54.2109Z"
        fill="white" />
    <path d="M71.5855 59.3242L69.7109 60.3483L70.7405 62.2088L72.6151 61.1888L71.5855 59.3242Z"
        fill="white" />
    <path d="M72.2808 51.5098L70.4062 52.5298L71.4317 54.3943L73.3104 53.3702L72.2808 51.5098Z"
        fill="white" />
    <path d="M70.8708 55.9746L68.9922 56.9946L70.0217 58.8592L71.9004 57.8351L70.8708 55.9746Z"
        fill="white" />
    <path d="M69.7817 53.5254L68.4609 54.2435L69.187 55.5532L70.5037 54.8351L69.7817 53.5254Z"
        fill="white" />
    <path d="M67.7739 57.166L66.4531 57.8841L67.1792 59.1938L68.5 58.4757L67.7739 57.166Z"
        fill="white" />
    <path d="M69.5835 67.6619L69.1641 71.0391L72.5634 71.4567L72.9829 68.0795L69.5835 67.6619Z"
        fill="white" />
    <path d="M70.2203 63.1779L69.8828 65.8867L72.6102 66.223L72.9477 63.5142L70.2203 63.1779Z"
        fill="white" />
    <path d="M65.0641 67.01L64.7266 69.7188L67.4539 70.055L67.7915 67.3462L65.0641 67.01Z"
        fill="white" />
    <path d="M66.4028 63.4491L66.1406 65.5586L68.2655 65.8199L68.5277 63.7104L66.4028 63.4491Z"
        fill="white" />
    <path d="M61.356 66.1366L61.0938 68.2461L63.2187 68.5074L63.4809 66.3979L61.356 66.1366Z"
        fill="white" />
    <path d="M66.5363 60.1971L66.2734 62.3066L68.3983 62.5686L68.6612 60.4591L66.5363 60.1971Z"
        fill="white" />
    <path d="M62.7629 62.992L62.5 65.1016L64.6249 65.3635L64.8878 63.254L62.7629 62.992Z"
        fill="white" />
    <path d="M63.9422 60.4595L63.7578 61.9414L65.2518 62.1253L65.4361 60.6433L63.9422 60.4595Z"
        fill="white" />
    <path d="M60.1686 62.2466L59.9844 63.7285L61.4783 63.9122L61.6625 62.4303L60.1686 62.2466Z"
        fill="white" />
    <path d="M59.4459 74.3055L56.9355 71.9922L54.6016 74.4851L57.1119 76.7984L59.4459 74.3055Z"
        fill="white" />
    <path d="M58.9771 26.6591L56.4668 24.3457L54.1328 26.8386L56.6473 29.1519L58.9771 26.6591Z"
        fill="white" />
    <path d="M62.1189 70.5712L60.1048 68.7148L58.2344 70.714L60.2484 72.5704L62.1189 70.5712Z"
        fill="white" />
    <path d="M55.6855 70.6787L53.6673 68.8223L51.7969 70.8215L53.815 72.6779L55.6855 70.6787Z"
        fill="white" />
    <path d="M58.4293 68.1535L56.8624 66.7051L55.4062 68.2636L56.9732 69.708L58.4293 68.1535Z"
        fill="white" />
    <path d="M52.7496 67.4014L51.1827 65.957L49.7266 67.5115L51.2976 68.9599L52.7496 67.4014Z"
        fill="white" />
    <path d="M60.445 65.5947L58.878 64.1504L57.4219 65.7049L58.9888 67.1533L60.445 65.5947Z"
        fill="white" />
    <path d="M55.734 65.6728L54.1671 64.2285L52.7109 65.783L54.2779 67.2314L55.734 65.6728Z"
        fill="white" />
    <path d="M57.7304 63.8774L56.627 62.8574L55.6016 63.9549L56.705 64.9709L57.7304 63.8774Z"
        fill="white" />
    <path d="M53.6211 63.1292L52.5177 62.1133L51.4922 63.2067L52.5956 64.2226L53.6211 63.1292Z"
        fill="white" />
    <path d="M44.1317 68.145L40.7734 68.8145L41.4457 72.1508L44.8039 71.4814L44.1317 68.145Z"
        fill="white" />
    <path d="M48.64 67.3244L45.9453 67.8613L46.4843 70.5376L49.1789 70.0007L48.64 67.3244Z"
        fill="white" />
    <path d="M43.3665 63.6771L40.6719 64.2148L41.2117 66.8911L43.9063 66.3534L43.3665 63.6771Z"
        fill="white" />
    <path d="M47.1854 63.8141L45.0859 64.2324L45.5057 66.3167L47.6051 65.8984L47.1854 63.8141Z"
        fill="white" />
    <path d="M50.326 62.9079L48.2266 63.3262L48.6463 65.4104L50.7457 64.9921L50.326 62.9079Z"
        fill="white" />
    <path d="M46.4666 60.2341L44.3672 60.6523L44.7869 62.7366L46.8863 62.3183L46.4666 60.2341Z"
        fill="white" />
    <path d="M49.2731 60.5734L47.7969 60.8672L48.0914 62.3315L49.5676 62.0377L49.2731 60.5734Z"
        fill="white" />
    <path d="M46.3823 57.5727L44.9062 57.8672L45.2016 59.3314L46.6776 59.0368L46.3823 57.5727Z"
        fill="white" />
    <path d="M34.6018 60.686L36.0251 57.5892L32.9036 56.1816L31.4844 59.2743L34.6018 60.686Z"
        fill="white" />
    <path d="M39.0178 62.0328L40.154 59.5522L37.6559 58.418L36.5156 60.9027L39.0178 62.0328Z"
        fill="white" />
    <path d="M36.885 55.9977L38.0253 53.513L35.5231 52.3828L34.3828 54.8675L36.885 55.9977Z"
        fill="white" />
    <path d="M39.1054 54.9701L38.2188 56.9043L40.167 57.7879L41.0537 55.8538L39.1054 54.9701Z"
        fill="white" />
    <path d="M42.7765 62.6277L43.6625 60.6938L41.7141 59.8125L40.8281 61.7464L42.7765 62.6277Z"
        fill="white" />
    <path d="M38.0433 49.3903L37.1562 51.3242L39.1043 52.2083L39.9914 50.2743L38.0433 49.3903Z"
        fill="white" />
    <path d="M42.1996 56.07L41.3125 58.0039L43.2605 58.888L44.1476 56.954L42.1996 56.07Z"
        fill="white" />
    <path d="M40.6299 51.6622L39.7422 53.5957L41.6898 54.4804L42.5775 52.5469L40.6299 51.6622Z"
        fill="white" />
    <path d="M44.0341 55.7815L44.6617 54.4229L43.2916 53.8027L42.6641 55.1655L44.0341 55.7815Z"
        fill="white" />
    <path d="M43.4482 51.6782L44.0716 50.3155L42.7016 49.6953L42.0781 51.058L43.4482 51.6782Z"
        fill="white" />
    <path d="M32.6904 46.0061L35.6683 44.3211L33.9702 41.3672L30.9922 43.0522L32.6904 46.0061Z"
        fill="white" />
    <path d="M35.479 49.6624L37.8704 48.3119L36.5045 45.9414L34.1172 47.2919L35.479 49.6624Z"
        fill="white" />
    <path d="M37.3071 43.5296L39.6944 42.1791L38.3326 39.8086L35.9453 41.1591L37.3071 43.5296Z"
        fill="white" />
    <path d="M38.9098 46.8909L40.768 45.8383L39.7097 43.9941L37.8516 45.0468L38.9098 46.8909Z"
        fill="white" />
    <path d="M41.328 41.7427L43.1862 40.69L42.1279 38.8418L40.2656 39.8944L41.328 41.7427Z"
        fill="white" />
    <path d="M40.7655 49.5648L42.6237 48.5121L41.5654 46.668L39.7031 47.7206L40.7655 49.5648Z"
        fill="white" />
    <path d="M42.1014 45.0806L43.9596 44.0279L42.9013 42.1797L41.0391 43.2364L42.1014 45.0806Z"
        fill="white" />
    <path d="M43.2309 47.5086L44.5394 46.7701L43.7929 45.4727L42.4844 46.2111L43.2309 47.5086Z"
        fill="white" />
    <path d="M45.1762 43.8408L46.4847 43.0982L45.7382 41.8008L44.4297 42.5393L45.1762 43.8408Z"
        fill="white" />
    <path d="M40.1527 29.6147L39.7891 32.998L43.1946 33.3602L43.5583 29.9769L40.1527 29.6147Z"
        fill="white" />
    <path d="M40.1826 34.8622L39.8906 37.5762L42.6232 37.867L42.9152 35.1531L40.1826 34.8622Z"
        fill="white" />
    <path d="M45.2842 30.954L44.9922 33.668L47.7248 33.9588L48.0168 31.2449L45.2842 30.954Z"
        fill="white" />
    <path d="M44.5401 35.2126L44.3125 37.3262L46.4415 37.553L46.6691 35.4394L44.5401 35.2126Z"
        fill="white" />
    <path d="M49.5392 32.4233L49.3125 34.5371L51.4417 34.7631L51.6684 32.6493L49.5392 32.4233Z"
        fill="white" />
    <path d="M44.4698 38.4548L44.2422 40.5684L46.3712 40.7952L46.5988 38.6816L44.4698 38.4548Z"
        fill="white" />
    <path d="M48.1963 35.5954L47.9688 37.709L50.0977 37.9358L50.3253 35.8222L48.1963 35.5954Z"
        fill="white" />
    <path d="M47.6129 38.8492L47.4531 40.334L48.9499 40.4933L49.1097 39.0085L47.6129 38.8492Z"
        fill="white" />
    <path d="M51.3541 37.0014L51.1953 38.4863L52.6923 38.6447L52.8511 37.1598L51.3541 37.0014Z"
        fill="white" />
    <path
        d="M67.3668 52.6598C67.1125 52.517 66.6489 52.2763 66.0091 52.0764C65.0861 51.7826 63.7981 51.5623 62.2722 51.803C61.7595 51.8846 61.2181 52.0193 60.6561 52.2192C60.6028 52.2396 60.5495 52.2559 60.4961 52.2763C60.209 52.3824 59.926 52.5129 59.6388 52.6557C59.3927 52.7781 59.1507 52.9128 58.9087 53.0597C58.355 53.3901 57.8094 53.7655 57.2803 54.1735C56.6773 50.5464 56.9726 47.1804 57.1121 45.528C57.1121 45.5198 57.1244 45.5157 57.1326 45.5198C58.4247 46.3277 58.0637 48.5839 57.7889 49.2326C57.7848 49.2449 57.8012 49.253 57.8135 49.2449C59.4214 47.3558 58.638 45.2669 58.3057 44.7405C58.2975 44.7283 58.3139 44.7161 58.3262 44.7242C58.56 44.9119 58.7487 45.1118 58.9087 45.3158C59.405 45.9482 59.5896 46.6296 59.6388 47.2334C59.6635 47.5517 59.6552 47.8454 59.6388 48.0984C59.6347 48.1677 59.6306 48.2289 59.6224 48.2901C59.6224 48.2983 59.6306 48.3024 59.6388 48.2983C59.6429 48.2983 59.647 48.2983 59.647 48.2942C60.0818 47.4456 60.291 46.1645 59.6388 44.9201C59.4625 44.5814 59.2246 44.2469 58.9087 43.9245C58.8185 43.8307 58.72 43.7409 58.6175 43.6471C58.6093 43.6389 58.6175 43.6226 58.6298 43.6267C58.7282 43.6512 58.8185 43.6797 58.9087 43.7083C59.1835 43.8021 59.4255 43.9327 59.6388 44.0918C60.127 44.4509 60.4592 44.9405 60.6561 45.4545C60.8202 45.8789 60.894 46.3154 60.894 46.703C60.894 46.7193 60.9145 46.7193 60.9186 46.7071C61.2222 45.6014 61.0376 44.765 60.6561 44.1571C60.3854 43.7205 60.0121 43.4023 59.6388 43.1779C59.3845 43.0269 59.1302 42.9209 58.9087 42.8556C58.7774 42.8148 58.6626 42.7903 58.56 42.7781C58.5436 42.7781 58.5477 42.7536 58.5641 42.7536C58.6831 42.7413 58.798 42.7373 58.9087 42.7332C59.1794 42.7291 59.4214 42.7536 59.6388 42.7903C60.0695 42.8719 60.4059 43.0188 60.6561 43.1901C61.0663 43.4635 61.2714 43.7858 61.3411 43.9164C61.3452 43.9286 61.3657 43.9205 61.3657 43.9082C61.3083 43.3248 61.0376 42.8678 60.6602 42.5414C60.369 42.2885 60.0121 42.113 59.6429 42.0069C59.4009 41.9417 59.1548 41.9049 58.9128 41.9009C58.5847 41.8968 58.2688 41.9498 58.0022 42.0641C57.9899 42.0681 57.9817 42.0559 57.9858 42.0437C58.2237 41.705 58.56 41.501 58.9128 41.3909C59.1589 41.3174 59.4091 41.2889 59.6429 41.3052C59.8685 41.3174 60.0736 41.3664 60.2418 41.4439C60.2541 41.448 60.2623 41.4357 60.2541 41.4235C60.0695 41.2154 59.8603 41.0522 59.6429 40.9298C59.4091 40.7993 59.163 40.7217 58.9128 40.6932C58.2606 40.6197 57.5961 40.8972 57.1531 41.5622C57.149 41.5704 57.1367 41.5704 57.1326 41.5622C57.0464 41.4113 56.9644 41.244 56.8906 41.0685C56.7142 40.6605 56.5706 40.2036 56.4927 39.7466C56.4886 39.7303 56.4722 39.7303 56.4722 39.7466C56.3942 40.2036 56.2466 40.6646 56.0702 41.0726C55.9923 41.2481 55.9143 41.4113 55.8282 41.5581C55.8241 41.5663 55.8118 41.5663 55.8077 41.5581C55.0365 40.3953 53.5886 40.4198 52.7067 41.4235C52.6985 41.4317 52.7067 41.448 52.719 41.4439C53.3055 41.1665 54.4171 41.2481 54.975 42.0437C54.9832 42.0559 54.9709 42.0681 54.9586 42.0641C54.1013 41.705 52.7723 41.9376 52.0627 42.7781C51.8084 43.0759 51.6361 43.4553 51.591 43.9082C51.591 43.9205 51.6074 43.9286 51.6156 43.9164C51.6689 43.8144 51.8084 43.5941 52.0627 43.3697C52.477 43.0065 53.1989 42.6393 54.3925 42.7495C54.4089 42.7536 54.4089 42.774 54.3966 42.774C53.7855 42.8474 52.5262 43.3901 52.0627 44.6304C51.8576 45.1771 51.8043 45.8625 52.034 46.703C52.0381 46.7153 52.0586 46.7153 52.0586 46.6989C52.0586 46.6785 52.0586 46.6622 52.0627 46.6418C52.075 45.5157 52.7231 44.0061 54.3269 43.6226C54.3392 43.6185 54.3474 43.6349 54.3392 43.643C52.5467 45.2097 52.7231 47.1437 53.3096 48.2861C53.3178 48.2983 53.3343 48.2942 53.3343 48.282C53.2563 47.417 53.1948 45.8789 54.6304 44.7161C54.6428 44.7079 54.6592 44.7201 54.651 44.7324C54.3187 45.2628 53.5352 47.3477 55.1432 49.2367C55.1514 49.2489 55.1719 49.2408 55.1678 49.2245C54.8971 48.5798 54.5361 46.3195 55.8241 45.5117C55.8323 45.5076 55.8446 45.5117 55.8446 45.5198C55.9841 47.1722 56.2794 50.5382 55.6764 54.1653C54.6387 53.3738 53.5434 52.6802 52.4606 52.2722C52.3252 52.2233 52.1939 52.1784 52.0668 52.1335C50.947 51.7663 49.9215 51.6643 49.0273 51.7051C47.5916 51.7663 46.4923 52.1947 45.8893 52.4925C45.7663 52.5537 45.6637 52.6109 45.5858 52.6557C45.553 52.6761 45.5776 52.721 45.6104 52.7088C45.7048 52.6802 45.795 52.6517 45.8893 52.6272C46.9928 52.3171 48.0387 52.2355 49.0273 52.3212C50.1061 52.415 51.1192 52.7088 52.0668 53.1331C53.3958 53.7288 54.5976 54.5774 55.6846 55.475C54.1505 56.8051 52.8543 58.0985 52.0668 58.5513C52.0258 58.5717 51.9888 58.5962 51.9519 58.6166C51.7632 58.3596 51.4351 58.2127 51.0782 58.2902C50.7665 58.3596 50.5122 58.6085 50.4424 58.9145C50.3809 59.1878 50.4506 59.4857 50.6065 59.6407C51.0249 60.0569 51.5089 60.0854 52.0668 59.8529C53.1292 59.4081 54.45 58.0128 56.0702 56.5358C56.2056 56.4134 56.3409 56.2869 56.4804 56.1645C56.6199 56.2869 56.7552 56.4093 56.8906 56.5317C57.6248 57.2009 58.2975 57.8537 58.9128 58.4085C59.1671 58.637 59.4091 58.8492 59.6429 59.0369C60.0039 59.3306 60.3444 59.5713 60.6602 59.7386C61.2796 60.065 61.8169 60.1058 62.2763 59.7019C62.301 59.6815 62.3256 59.6611 62.3502 59.6366C62.4568 59.5305 62.5799 59.1837 62.5142 58.9104C62.4773 58.7513 62.3912 58.6085 62.2722 58.4983C62.1656 58.3963 62.0261 58.3188 61.8785 58.2861C61.5216 58.2086 61.1934 58.3555 61.0048 58.6125C60.8981 58.5595 60.7833 58.4861 60.6561 58.4004C60.3649 58.2005 60.0244 57.9189 59.6388 57.5844C59.4091 57.3845 59.1671 57.1641 58.9087 56.9316C58.4083 56.4787 57.8586 55.9809 57.2762 55.4709C57.793 55.0425 58.3385 54.6264 58.9087 54.2429C59.1466 54.0837 59.3886 53.9287 59.6388 53.7818C59.9711 53.586 60.3074 53.4065 60.6561 53.2392C61.177 52.9903 61.7144 52.7822 62.2722 52.6231C63.429 52.2926 64.6718 52.1825 66.0091 52.3946C66.4439 52.464 66.8869 52.566 67.3422 52.7047C67.375 52.7251 67.3996 52.6802 67.3668 52.6598Z"
        fill="white" />
    <path d="M9.39969 89.7109H8.39062V90.7146H9.39969V89.7109Z" fill="white" />
    <path
        d="M76.3262 88.5537V81.9277H75.3417V87.5745H71.6295V81.9277H70.6451V87.5745H66.736V81.9277H65.1896C64.5743 81.9277 64.0164 82.0093 63.516 82.1766C63.0156 82.3439 62.589 82.5765 62.2362 82.8702C61.8835 83.1681 61.6127 83.5189 61.4199 83.9269C61.2271 84.3349 61.1328 84.7715 61.1328 85.2448C61.1328 85.8241 61.2436 86.3178 61.4651 86.734C61.6866 87.1501 61.9819 87.4888 62.3511 87.7581C62.7202 88.0273 63.1509 88.2273 63.6432 88.3537C64.1354 88.4843 64.6522 88.5496 65.1937 88.5496L76.3262 88.5537ZM63.7457 87.4194C63.4217 87.3133 63.1386 87.1624 62.8966 86.9625C62.6546 86.7625 62.4659 86.5177 62.3265 86.2321C62.187 85.9425 62.1173 85.6161 62.1173 85.2489C62.1173 84.898 62.1952 84.5797 62.347 84.2901C62.4987 84.0004 62.6997 83.7556 62.9499 83.5475C63.2002 83.3394 63.4832 83.1803 63.8031 83.0701C64.1231 82.96 64.4512 82.9069 64.7876 82.9069H65.7597V87.5785H64.7876C64.4184 87.5785 64.0698 87.5255 63.7457 87.4194Z"
        fill="white" />
    <path d="M56.2813 79.7969H55.2969V88.5526H56.2813V79.7969Z" fill="white" />
    <path d="M66.7356 79.7969H65.7266V80.8006H66.7356V79.7969Z" fill="white" />
    <path d="M76.3372 89.6992H75.3281V90.7029H76.3372V89.6992Z" fill="white" />
    <path d="M11.1184 89.7109H10.1094V90.7146H11.1184V89.7109Z" fill="white" />
    <path
        d="M51.4519 87.5776H49.8439C49.2697 87.5776 48.8185 87.496 48.4903 87.3328C48.1622 87.1696 47.9037 86.9248 47.7151 86.6025C47.7725 86.3495 47.8012 86.0435 47.8012 85.6886V82.5388H46.8167V85.8436C46.8167 86.4066 46.665 86.8555 46.3614 87.1941C46.0579 87.5327 45.5985 87.7 44.9832 87.7C44.6961 87.7 44.4336 87.6551 44.1956 87.5654C43.9577 87.4756 43.7526 87.3532 43.5804 87.1982C43.4081 87.0431 43.2727 86.8636 43.1743 86.6555C43.0758 86.4475 43.0225 86.2271 43.0143 85.9905V82.5388H42.0299V85.9171C42.0299 86.219 41.9847 86.4719 41.8945 86.68C41.8043 86.8881 41.6812 87.0595 41.5253 87.1941C41.3695 87.3287 41.1931 87.4267 40.9962 87.4879C40.7993 87.5491 40.5901 87.5776 40.3686 87.5776H38.4653V82.5388H37.4809V87.5776H32.3289L34.0476 83.4894C33.7851 83.261 33.5062 83.0488 33.2108 82.8489C32.9155 82.649 32.6119 82.4735 32.3002 82.3226C31.9885 82.1716 31.6726 82.0533 31.3527 81.9676C31.0327 81.8819 30.7169 81.8411 30.4051 81.8411C30.0852 81.8411 29.7652 81.886 29.4453 81.9676C29.1253 82.0533 28.8095 82.1675 28.4937 82.3144C28.1778 82.4613 27.8743 82.6367 27.583 82.8407C27.2918 83.0447 27.0211 83.2569 26.7668 83.4854L28.4978 87.5735H25.0932V81.9268H23.5222C22.9151 81.9268 22.3614 82.0125 21.8609 82.1838C21.3605 82.3552 20.9339 82.5878 20.577 82.8856C20.2202 83.1834 19.9454 83.5384 19.7485 83.9464C19.5516 84.3585 19.4531 84.8032 19.4531 85.2846C19.4531 85.864 19.5598 86.3577 19.7772 86.7657C19.9946 87.1778 20.2899 87.5164 20.6632 87.7775C21.0365 88.0427 21.4671 88.2386 21.9594 88.361C22.4516 88.4874 22.9725 88.5486 23.5222 88.5486H24.1129V88.8302C24.1129 89.3442 23.9652 89.7074 23.6699 89.9277C23.3745 90.148 22.9602 90.2582 22.427 90.2582C22.1234 90.2582 21.8527 90.2296 21.6107 90.1725C21.3687 90.1154 21.0939 90.0174 20.7821 89.8787L20.4745 90.8171C20.8519 90.9558 21.1841 91.0578 21.4754 91.1272C21.7666 91.1966 22.0578 91.2333 22.3532 91.2333C23.313 91.2333 24.0062 91.0089 24.441 90.556C24.8758 90.1031 25.0932 89.4952 25.0932 88.7323V88.5486H40.3686C40.8444 88.5486 41.2669 88.4466 41.6402 88.2426C42.0135 88.0386 42.3129 87.7653 42.5426 87.4266C42.7805 87.8183 43.1045 88.1243 43.5147 88.3406C43.9249 88.5609 44.413 88.6711 44.9791 88.6711C45.5698 88.6711 46.0702 88.5691 46.4845 88.3651C46.8988 88.1611 47.2146 87.851 47.4361 87.4266C47.5182 87.5654 47.6166 87.7 47.7356 87.8346C47.8545 87.9693 48.0063 88.0876 48.195 88.1937C48.3837 88.2998 48.6134 88.3854 48.8759 88.4507C49.0769 88.4997 49.3189 88.5242 49.5814 88.5364V88.5486H52.4199V79.793H51.4355V87.5776H51.4519ZM24.117 87.5776H23.1202C22.751 87.5776 22.4065 87.5286 22.0824 87.4266C21.7584 87.3246 21.4754 87.1778 21.2292 86.9819C20.9831 86.7861 20.7903 86.5454 20.6509 86.2639C20.5114 85.9783 20.4417 85.6518 20.4417 85.2887C20.4417 84.9378 20.5155 84.6196 20.6673 84.3259C20.8191 84.0321 21.02 83.7832 21.2703 83.5751C21.5205 83.367 21.8035 83.2079 22.1235 83.0937C22.4434 82.9794 22.7756 82.9223 23.1202 82.9223H24.117V87.5776ZM29.5396 87.5776L28.0055 83.8322C28.3829 83.5139 28.7685 83.2814 29.1664 83.1386C29.5643 82.9917 29.9785 82.9183 30.4133 82.9183C30.8563 82.9183 31.2952 83.0039 31.73 83.1794C32.1648 83.3548 32.534 83.571 32.8376 83.8322L31.3034 87.5776H29.5396Z"
        fill="white" />
    <path d="M6.0325 79.7969H5.02344V80.8006H6.0325V79.7969Z" fill="white" />
    <path d="M105.478 79.7969H104.469V80.8006H105.478V79.7969Z" fill="white" />
    <path d="M96.7423 79.7969H95.7578V88.5526H96.7423V79.7969Z" fill="white" />
    <path d="M65.0169 79.7969H64.0078V80.8006H65.0169V79.7969Z" fill="white" />
    <path
        d="M17.8955 84.714C17.8955 84.3305 17.8463 83.9755 17.7397 83.641C17.6371 83.3064 17.4813 83.0249 17.268 82.7883C17.0054 82.5027 16.7142 82.2905 16.3902 82.1477C16.0661 82.0049 15.6723 81.9355 15.2047 81.9355H14.4787V82.9107H15.3401C15.578 82.9107 15.8036 82.9637 16.0169 83.0616C16.2302 83.1636 16.4066 83.2942 16.546 83.4574C16.6855 83.6288 16.7798 83.8164 16.8332 84.0204C16.8865 84.2244 16.9152 84.4692 16.9152 84.7507V87.5823H12.3047V88.5574H17.8955V84.714Z"
        fill="white" />
    <path d="M148.75 79.7969H147.766V88.5526H148.75V79.7969Z" fill="white" />
    <path d="M107.197 79.7969H106.188V80.8006H107.197V79.7969Z" fill="white" />
    <path
        d="M144.909 79.7969H143.925V87.5774H140.545C140.75 87.1286 140.852 86.6513 140.852 86.1372C140.852 85.6354 140.758 85.1621 140.578 84.7296C140.393 84.293 140.143 83.9177 139.823 83.6035C139.503 83.2853 139.126 83.0364 138.687 82.8528C138.248 82.6692 137.776 82.5794 137.267 82.5794C136.775 82.5794 136.316 82.6733 135.889 82.861C135.463 83.0486 135.093 83.3016 134.778 83.6239C134.462 83.9462 134.216 84.3216 134.035 84.7541C133.855 85.1866 133.764 85.6476 133.764 86.1454C133.764 86.4065 133.793 86.6554 133.846 86.8961C133.9 87.1368 133.969 87.3653 134.06 87.5856H131.012C131.217 87.1368 131.32 86.6594 131.32 86.1454C131.32 85.6435 131.225 85.1702 131.045 84.7378C130.86 84.3012 130.61 83.9258 130.29 83.6117C129.97 83.2934 129.593 83.0446 129.154 82.861C128.715 82.6774 128.243 82.5876 127.735 82.5876C127.242 82.5876 126.787 82.6814 126.36 82.8691C125.934 83.0568 125.565 83.3098 125.249 83.6321C124.933 83.9544 124.687 84.3298 124.506 84.7622C124.326 85.1947 124.236 85.6558 124.236 86.1535C124.236 86.4146 124.264 86.6635 124.318 86.9042C124.371 87.145 124.441 87.3734 124.531 87.5938H121.41V79.8132H120.425V87.5938H117.291V86.1005C117.291 85.7251 117.242 85.3702 117.144 85.0315C117.045 84.6929 116.889 84.4073 116.676 84.1706C116.422 83.885 116.135 83.6729 115.815 83.5342C115.495 83.3954 115.089 83.3261 114.596 83.3261H110.244L112.094 79.8091H111.024L109.137 83.3138C109.17 83.526 109.219 83.7096 109.293 83.8646C109.362 84.0197 109.457 84.1666 109.58 84.3053H114.592C114.904 84.3053 115.171 84.3502 115.396 84.4481C115.622 84.5419 115.802 84.6684 115.942 84.8316C116.081 84.9948 116.176 85.1825 116.225 85.3946C116.274 85.6068 116.299 85.8434 116.299 86.1005V87.5938H107.205V81.947H105.654C105.039 81.947 104.481 82.0286 103.985 82.1959C103.484 82.3632 103.058 82.5958 102.705 82.8895C102.352 83.1874 102.081 83.5382 101.889 83.9462C101.696 84.3542 101.602 84.7908 101.602 85.2641C101.602 85.8434 101.712 86.3371 101.934 86.7533C102.155 87.1694 102.451 87.5081 102.82 87.7774C103.189 88.0466 103.62 88.2466 104.112 88.373C104.604 88.5036 105.121 88.5689 105.658 88.5689H125.163C125.483 88.9116 125.86 89.1809 126.299 89.3808C126.738 89.5807 127.214 89.6786 127.731 89.6786C128.256 89.6786 128.744 89.5807 129.199 89.3849C129.654 89.189 130.044 88.9157 130.372 88.5689H134.7C135.02 88.9116 135.397 89.1809 135.836 89.3808C136.275 89.5807 136.751 89.6786 137.267 89.6786C137.792 89.6786 138.281 89.5807 138.736 89.3849C139.191 89.189 139.581 88.9157 139.909 88.5689H144.909V79.7969ZM106.22 87.5774H105.248C104.879 87.5774 104.534 87.5244 104.21 87.4183C103.886 87.3122 103.603 87.1613 103.361 86.9614C103.119 86.7614 102.931 86.5166 102.791 86.231C102.652 85.9414 102.582 85.615 102.582 85.2478C102.582 84.8969 102.656 84.5786 102.808 84.289C102.959 83.9993 103.16 83.7545 103.41 83.5464C103.661 83.3383 103.944 83.1792 104.264 83.069C104.584 82.9589 104.912 82.9058 105.248 82.9058H106.22V87.5774ZM130.13 87.145C129.995 87.4591 129.81 87.7284 129.576 87.9569C129.343 88.1854 129.068 88.3608 128.752 88.4873C128.436 88.6138 128.096 88.675 127.726 88.675C127.365 88.675 127.033 88.6056 126.726 88.475C126.418 88.3404 126.151 88.1568 125.926 87.9242C125.7 87.6917 125.524 87.4224 125.397 87.1123C125.269 86.8022 125.208 86.4718 125.208 86.125C125.208 85.7741 125.273 85.4436 125.397 85.1294C125.524 84.8153 125.7 84.546 125.922 84.3134C126.143 84.0809 126.406 83.8973 126.713 83.7586C127.021 83.6198 127.357 83.5505 127.726 83.5505C128.104 83.5505 128.448 83.6158 128.764 83.7463C129.08 83.8769 129.355 84.0564 129.589 84.2849C129.822 84.5134 130.003 84.7826 130.134 85.0968C130.265 85.411 130.331 85.7537 130.331 86.129C130.335 86.4922 130.265 86.8308 130.13 87.145ZM139.667 87.145C139.532 87.4591 139.347 87.7284 139.113 87.9569C138.879 88.1854 138.605 88.3608 138.289 88.4873C137.973 88.6138 137.632 88.675 137.263 88.675C136.902 88.675 136.57 88.6056 136.262 88.475C135.955 88.3404 135.688 88.1568 135.463 87.9242C135.237 87.6917 135.061 87.4224 134.933 87.1123C134.806 86.8022 134.741 86.4718 134.741 86.125C134.741 85.7741 134.806 85.4436 134.933 85.1294C135.061 84.8153 135.233 84.546 135.454 84.3134C135.676 84.0809 135.938 83.8973 136.246 83.7586C136.554 83.6198 136.89 83.5505 137.259 83.5505C137.637 83.5505 137.981 83.6158 138.297 83.7463C138.613 83.8769 138.888 84.0564 139.121 84.2849C139.355 84.5134 139.536 84.7826 139.667 85.0968C139.798 85.411 139.864 85.7537 139.864 86.129C139.872 86.4922 139.802 86.8308 139.667 87.145Z"
        fill="white" />
    <path
        d="M2.94004 88.3578C3.43226 88.4884 3.9491 88.5537 4.48644 88.5537H10.9264V81.9277H9.94194V87.5745H6.03285V81.9277H4.48234C3.86706 81.9277 3.31331 82.0093 2.81288 82.1766C2.31245 82.3439 1.88585 82.5765 1.53309 82.8702C1.18033 83.1681 0.909606 83.5189 0.716818 83.9269C0.524029 84.3349 0.429688 84.7715 0.429688 85.2448C0.429688 85.8241 0.540437 86.3178 0.761939 86.734C0.98344 87.1501 1.27878 87.4888 1.64795 87.7581C2.01711 88.0314 2.44781 88.2313 2.94004 88.3578ZM1.41414 85.2489C1.41414 84.898 1.49207 84.5797 1.64384 84.2901C1.79561 84.0004 1.9966 83.7556 2.24682 83.5475C2.49703 83.3394 2.78006 83.1803 3.10001 83.0701C3.41996 82.96 3.74811 82.9069 4.08446 82.9069H5.0566V87.5785H4.08446C3.71529 87.5785 3.37073 87.5255 3.04668 87.4194C2.72264 87.3133 2.43961 87.1624 2.1976 86.9625C1.95558 86.7625 1.7669 86.5177 1.62743 86.2321C1.48387 85.9425 1.41414 85.6161 1.41414 85.2489Z"
        fill="white" />
    <path d="M72.7434 89.7109H71.7344V90.7146H72.7434V89.7109Z" fill="white" />
    <path d="M71.0247 89.7109H70.0156V90.7146H71.0247V89.7109Z" fill="white" />
    <path
        d="M80.1512 89.7929C80.2127 89.4869 80.2455 89.1442 80.2455 88.7606V88.5526H92.8916V79.7969H91.9071V87.5774H87.7273L89.446 83.4893C89.1835 83.2608 88.9046 83.0486 88.6092 82.8487C88.3139 82.6488 88.0104 82.4734 87.6986 82.3224C87.3869 82.1714 87.071 82.0531 86.7511 81.9674C86.4311 81.8818 86.1153 81.841 85.8036 81.841C85.4836 81.841 85.1637 81.8858 84.8437 81.9674C84.5238 82.0531 84.2079 82.1674 83.8921 82.3142C83.5762 82.4611 83.2727 82.6366 82.9815 82.8406C82.6902 83.0446 82.4195 83.2567 82.1652 83.4852L83.8962 87.5734H80.2332V81.9266H79.2488V88.7606C79.2488 89.0381 79.2365 89.2706 79.2077 89.4624C79.179 89.6542 79.1298 89.8092 79.0601 89.9275C78.9903 90.0458 78.896 90.1315 78.777 90.1846C78.6581 90.2376 78.5063 90.2662 78.3176 90.2662C78.2274 90.2662 78.1495 90.2621 78.0838 90.2539C78.0182 90.2458 77.9279 90.2254 77.8131 90.1927L77.5547 91.1311C77.8254 91.2046 78.092 91.2413 78.3545 91.2413C78.7073 91.2413 79.0026 91.1842 79.2447 91.0699C79.4867 90.9557 79.6795 90.7925 79.8271 90.5762C79.9871 90.36 80.0896 90.0989 80.1512 89.7929ZM83.404 83.832C83.7813 83.5138 84.1669 83.2812 84.5648 83.1384C84.9627 82.9915 85.377 82.9181 85.8118 82.9181C86.2548 82.9181 86.6937 83.0038 87.1285 83.1792C87.5633 83.3546 87.9324 83.5709 88.236 83.832L86.7019 87.5774H84.9463L83.404 83.832Z"
        fill="white" />
    <path d="M4.31375 79.7969H3.30469V80.8006H4.31375V79.7969Z" fill="white" />
    <path
        d="M7.48191 94.9668H5.96832L2.62529 98.4756V94.9668H1.39062V101.94H2.62529V99.9199L3.72049 98.802L6.11599 101.94H7.61317L4.56138 97.9656L7.48191 94.9668Z"
        fill="white" />
    <path d="M9.97686 94.9668H8.74219V101.94H9.97686V94.9668Z" fill="white" />
    <path
        d="M16.7808 99.7894L13.0194 94.9668H11.875V101.94H13.0892V96.9782L16.9613 101.94H17.995V94.9668H16.7808V99.7894Z"
        fill="white" />
    <path
        d="M23.1044 99.1113H24.901V100.417C24.4703 100.735 23.8673 100.943 23.2069 100.943C21.7713 100.943 20.8196 99.8865 20.8196 98.4544V98.434C20.8196 97.0998 21.8 95.9737 23.0962 95.9737C23.9904 95.9737 24.5195 96.2634 25.061 96.7204L25.8444 95.7942C25.1225 95.1863 24.3678 94.8477 23.1454 94.8477C21.0288 94.8477 19.5234 96.5001 19.5234 98.4544V98.4748C19.5234 100.507 20.9673 102.061 23.1659 102.061C24.4088 102.061 25.4055 101.563 26.0946 100.976V98.0464H23.1044V99.1113Z"
        fill="white" />
    <path
        d="M30.4139 94.9668H27.7969V101.94H30.4139C32.6207 101.94 34.1466 100.418 34.1466 98.4511V98.4307C34.1466 96.4723 32.6207 94.9668 30.4139 94.9668ZM32.8545 98.4756C32.8545 99.8383 31.8905 100.826 30.418 100.826H29.0356V96.0847H30.418C31.8947 96.0847 32.8545 97.0925 32.8545 98.4552V98.4756Z"
        fill="white" />
    <path
        d="M38.9841 94.8477C36.8265 94.8477 35.3047 96.4919 35.3047 98.4544V98.4748C35.3047 100.437 36.8101 102.061 38.9677 102.061C41.1253 102.061 42.6511 100.417 42.6511 98.4544V98.434C42.6429 96.4715 41.1376 94.8477 38.9841 94.8477ZM41.3509 98.4748C41.3509 99.8293 40.3787 100.935 38.9841 100.935C37.5894 100.935 36.5968 99.8089 36.5968 98.4544V98.434C36.5968 97.0794 37.5689 95.9737 38.9636 95.9737C40.3582 95.9737 41.3509 97.0998 41.3509 98.4544V98.4748Z"
        fill="white" />
    <path
        d="M47.6294 98.2634L45.4923 94.9668H44.1797V101.94H45.3938V96.9619L47.5924 100.226H47.6294L49.8485 96.9415V101.94H51.0831V94.9668H49.7664L47.6294 98.2634Z"
        fill="white" />
    <path
        d="M59.2731 94.8477C57.1155 94.8477 55.5938 96.4919 55.5938 98.4544V98.4748C55.5938 100.437 57.0991 102.061 59.2567 102.061C61.4143 102.061 62.9402 100.417 62.9402 98.4544V98.434C62.9361 96.4715 61.4307 94.8477 59.2731 94.8477ZM61.6399 98.4748C61.6399 99.8293 60.6678 100.935 59.2731 100.935C57.8785 100.935 56.8858 99.8089 56.8858 98.4544V98.434C56.8858 97.0794 57.858 95.9737 59.2526 95.9737C60.6473 95.9737 61.6399 97.0998 61.6399 98.4544V98.4748Z"
        fill="white" />
    <path
        d="M64.4688 101.94H65.7034V99.0998H69.2433V97.986H65.7034V96.0847H69.6945V94.9668H64.4688V101.94Z"
        fill="white" />
    <path
        d="M76.769 97.8965C75.4236 97.5783 75.1036 97.3375 75.1036 96.8031V96.7827C75.1036 96.3257 75.5261 95.9544 76.2481 95.9544C76.8921 95.9544 77.5237 96.2033 78.1554 96.6725L78.8158 95.7463C78.1021 95.1792 77.2899 94.8691 76.2686 94.8691C74.8739 94.8691 73.869 95.6974 73.869 96.8887V96.9091C73.869 98.1943 74.714 98.6309 76.207 98.9899C77.5114 99.2878 77.7904 99.5571 77.7904 100.055V100.079C77.7904 100.61 77.3104 100.956 76.5475 100.956C75.6738 100.956 75.0011 100.626 74.3284 100.051L73.5859 100.928C74.4309 101.675 75.44 102.042 76.5147 102.042C77.9914 102.042 79.0209 101.267 79.0209 99.961V99.9406C79.025 98.7819 78.2539 98.2555 76.769 97.8965Z"
        fill="white" />
    <path
        d="M82.8075 94.918L79.7188 101.94H80.9821L81.7041 100.255H85.0266L85.7403 101.94H87.0447L83.956 94.918H82.8075ZM82.1553 99.1734L83.3612 96.3827L84.5754 99.1734H82.1553Z"
        fill="white" />
    <path
        d="M92.5443 98.9815C92.5443 100.267 91.8716 100.924 90.7764 100.924C89.673 100.924 89.0003 100.226 89.0003 98.9326V94.9668H87.7656V98.9815C87.7656 101.001 88.9306 102.05 90.7559 102.05C92.5935 102.05 93.7749 101.005 93.7749 98.9244V94.9709H92.5402V98.9815H92.5443Z"
        fill="white" />
    <path
        d="M98.2029 94.9668H95.5859V101.94H98.2029C100.41 101.94 101.936 100.418 101.936 98.4511V98.4307C101.936 96.4723 100.41 94.9668 98.2029 94.9668ZM100.639 98.4756C100.639 99.8383 99.6755 100.826 98.2029 100.826H96.8206V96.0847H98.2029C99.6796 96.0847 100.639 97.0925 100.639 98.4552V98.4756Z"
        fill="white" />
    <path d="M104.735 94.9668H103.5V101.94H104.735V94.9668Z" fill="white" />
    <path
        d="M112.104 94.918L109.016 101.94H110.279L111.001 100.255H114.323L115.037 101.94H116.342L113.253 94.918H112.104ZM111.452 99.1734L112.658 96.3827L113.872 99.1734H111.452Z"
        fill="white" />
    <path
        d="M123.246 97.1904V97.17C123.246 96.5621 123.037 96.0439 122.664 95.6645C122.213 95.2279 121.519 94.9668 120.638 94.9668H117.508V101.94H118.742V99.5078H120.268H120.289L122.016 101.94H123.472L121.577 99.2998C122.553 99.0223 123.246 98.3328 123.246 97.1904ZM118.742 98.4226V96.0806H120.539C121.454 96.0806 121.995 96.4886 121.995 97.2353V97.2557C121.995 97.9615 121.433 98.4226 120.551 98.4226H118.742Z"
        fill="white" />
    <path
        d="M127.464 94.918L124.375 101.94H125.638L126.36 100.255H129.683L130.397 101.94H131.701L128.612 94.918H127.464ZM126.812 99.1734L128.017 96.3827L129.232 99.1734H126.812Z"
        fill="white" />
    <path
        d="M137.314 98.3163C137.835 98.047 138.319 97.5982 138.319 96.7618V96.7414C138.319 96.2722 138.159 95.8969 137.847 95.5868C137.445 95.1869 136.814 94.9707 136.01 94.9707H132.859V101.943H136.108C137.675 101.943 138.705 101.278 138.705 100.03V100.009C138.709 99.0629 138.138 98.5937 137.314 98.3163ZM134.074 96.0519H135.85C136.641 96.0519 137.084 96.3905 137.084 96.9373V96.9577C137.084 97.5941 136.551 97.9042 135.759 97.9042H134.074V96.0519ZM137.474 99.8993C137.474 100.528 136.961 100.854 136.12 100.854H134.074V98.9405H136.03C137.002 98.9405 137.474 99.2914 137.474 99.8789V99.8993Z"
        fill="white" />
    <path d="M141.469 94.9668H140.234V101.94H141.469V94.9668Z" fill="white" />
    <path
        d="M146.882 94.918H145.737L142.648 101.94H143.912L144.634 100.255H147.956L148.67 101.94H149.974L146.882 94.918ZM145.085 99.1734L146.291 96.3827L147.505 99.1734H145.085Z"
        fill="white" />
</svg>